<svg width="124" height="18" viewBox="0 0 124 18" fill="none" xmlns="http://www.w3.org/2000/svg">
<g clip-path="url(#clip0_141_9544)">
<path fill-rule="evenodd" clip-rule="evenodd" d="M6.77225 6.71658C6.04528 6.65884 5.66287 6.63991 5.2426 6.63991C3.73093 6.63991 2.8317 7.80607 2.8317 9.49001V13.7761H0.000518799V4.21008H2.8317V4.42021L2.69728 5.79746H2.77396C3.30971 4.76382 4.18907 4.11353 5.29939 4.11353C5.75847 4.11353 6.16076 4.15139 6.9644 4.22806L7.95924 4.34354V6.81124L6.77225 6.71658Z" fill="white"/>
<path fill-rule="evenodd" clip-rule="evenodd" d="M13.0988 7.90158H18.9732C18.6854 6.75339 17.6149 6.08417 16.0833 6.08417C14.5149 6.08417 13.4822 6.77327 13.0988 7.90158ZM13.0221 9.77673C13.3866 11.1739 14.7638 11.7674 16.2944 11.7674C17.4227 11.7674 18.7053 11.5175 19.0111 10.6182H21.8612C21.5753 13.0301 18.8198 13.9473 16.2367 13.9473C12.7552 13.9473 10.2288 12.093 10.2288 9.06869C10.2288 5.98857 12.6975 4.01782 16.1221 4.01782C19.3547 4.01782 21.8612 5.77938 21.8612 8.76295C21.8612 9.14536 21.8044 9.52779 21.7277 9.77673H13.0221Z" fill="white"/>
<mask id="mask0_141_9544" style="mask-type:alpha" maskUnits="userSpaceOnUse" x="25" y="0" width="12" height="14">
<path fill-rule="evenodd" clip-rule="evenodd" d="M25.0008 0H36.194V13.776H25.0008V0Z" fill="white"/>
</mask>
<g mask="url(#mask0_141_9544)">
<path fill-rule="evenodd" clip-rule="evenodd" d="M27.8519 13.7761H25.0008V-0.000244141H27.8519V5.52958H27.9285C28.2333 5.03264 29.0758 4.01792 31.4488 4.01792C34.1655 4.01792 36.194 5.10837 36.194 8.28504V13.7761H33.3429V9.012C33.3429 7.04125 32.597 6.10415 30.8743 6.10415C29.1723 6.10415 27.8519 7.21258 27.8519 9.29975V13.7761Z" fill="white"/>
</g>
<path fill-rule="evenodd" clip-rule="evenodd" d="M44.059 9.94901C42.9486 9.94901 42.394 10.2746 42.394 10.9448C42.394 11.7087 43.1597 11.8431 44.0779 11.8431C45.4741 11.8431 47.3294 11.4796 47.4259 9.94901H44.059ZM47.4638 12.589C46.7756 13.4115 45.4353 13.9662 43.58 13.9662C41.3414 13.9662 39.6007 13.067 39.6007 11.0394C39.6007 9.2031 40.9779 7.95932 44.4215 7.95932C45.5318 7.95932 46.3733 8.05492 47.4259 8.18933V7.95932C47.4259 6.61993 45.972 6.16084 44.7661 6.16084C43.7144 6.16084 42.5653 6.48646 42.375 7.27116H39.4861C39.754 4.91801 42.3561 4.01782 44.7093 4.01782C47.2915 4.01782 50.1425 4.84133 50.1425 7.95932V10.7526C50.1425 12.0163 50.2372 13.1437 50.4483 13.5649V13.776H47.7894C47.7127 13.4693 47.6171 13.067 47.5404 12.589H47.4638Z" fill="white"/>
<mask id="mask1_141_9544" style="mask-type:alpha" maskUnits="userSpaceOnUse" x="53" y="0" width="13" height="14">
<path fill-rule="evenodd" clip-rule="evenodd" d="M53.7412 0H65.5647V13.9473H53.7412V0Z" fill="white"/>
</mask>
<g mask="url(#mask1_141_9544)">
<path fill-rule="evenodd" clip-rule="evenodd" d="M59.767 11.7284C61.5466 11.7284 62.6569 10.7147 62.6569 8.99187C62.6569 7.25209 61.5466 6.23737 59.767 6.23737C58.0263 6.23737 56.8601 7.25209 56.8601 8.99187C56.8601 10.7147 58.0263 11.7284 59.767 11.7284ZM54.0469 -0.000488281H56.8601V5.26146H56.9358C57.5672 4.49569 58.7334 4.01768 60.3028 4.01768C63.5362 4.01768 65.5647 5.85401 65.5647 8.99187C65.5647 12.1108 63.5362 13.9472 60.3416 13.9472C58.6955 13.9472 57.4915 13.3736 56.8402 12.4365H56.7636C56.6869 12.9921 56.5922 13.4313 56.4957 13.7758H53.7412V13.5648C53.9324 13.1435 54.0469 12.0162 54.0469 10.7525V-0.000488281Z" fill="white"/>
</g>
<path fill-rule="evenodd" clip-rule="evenodd" d="M73.9082 4.01831C76.8539 4.01831 79.1124 5.05101 79.3235 7.27165H76.5681C76.3381 6.35254 75.0744 6.08466 73.8893 6.08466C72.7421 6.08466 71.6317 6.27587 71.6317 6.94509C71.6317 7.67205 72.3199 7.76765 74.6361 7.95981C78.1753 8.26555 79.3235 9.31907 79.3235 10.9822C79.3235 13.2975 76.8161 13.9667 74.195 13.9667C71.0572 13.9667 68.7229 13.0305 68.5317 10.6187H71.2493C71.4405 11.7479 72.8945 11.9013 74.1572 11.9013C75.4199 11.9013 76.587 11.729 76.587 11.0399C76.587 10.3328 75.878 10.1795 73.9281 10.0063C70.5602 9.71945 68.8763 8.99251 68.8763 7.02176C68.8763 4.84088 71.1916 4.01831 73.9082 4.01831Z" fill="white"/>
<mask id="mask2_141_9544" style="mask-type:alpha" maskUnits="userSpaceOnUse" x="83" y="0" width="12" height="14">
<path fill-rule="evenodd" clip-rule="evenodd" d="M83.0158 0H94.2089V13.776H83.0158V0Z" fill="white"/>
</mask>
<g mask="url(#mask2_141_9544)">
<path fill-rule="evenodd" clip-rule="evenodd" d="M85.8669 13.7761H83.0158V-0.000244141H85.8669V5.52958H85.9435C86.2493 5.03264 87.0917 4.01792 89.4638 4.01792C92.1804 4.01792 94.2089 5.10837 94.2089 8.28504V13.7761H91.3579V9.012C91.3579 7.04125 90.612 6.10415 88.8892 6.10415C87.1873 6.10415 85.8669 7.21258 85.8669 9.29975V13.7761Z" fill="white"/>
</g>
<path fill-rule="evenodd" clip-rule="evenodd" d="M100.122 8.99227C100.122 10.6573 101.271 11.8055 103.089 11.8055C104.925 11.8055 106.093 10.6573 106.093 8.99227C106.093 7.32819 104.925 6.18002 103.089 6.18002C101.271 6.18002 100.122 7.32819 100.122 8.99227ZM103.089 13.9665C99.645 13.9665 97.2341 12.1491 97.2341 8.99227C97.2341 5.83642 99.645 4.01807 103.089 4.01807C106.531 4.01807 108.981 5.83642 108.981 8.99227C108.981 12.1491 106.531 13.9665 103.089 13.9665Z" fill="white"/>
<path fill-rule="evenodd" clip-rule="evenodd" d="M117.86 11.7285C119.639 11.7285 120.767 10.7147 120.767 8.97404C120.767 7.25223 119.639 6.23752 117.86 6.23752C116.119 6.23752 114.97 7.25223 114.97 8.97404C114.97 10.7147 116.119 11.7285 117.86 11.7285ZM114.875 5.52949H114.932C115.601 4.59239 116.807 4.01782 118.433 4.01782C121.628 4.01782 123.656 5.85416 123.656 8.97404C123.656 12.1109 121.628 13.9473 118.394 13.9473C116.826 13.9473 115.659 13.4692 115.046 12.7044H114.97V17.9844H112.082V4.20997H114.97V4.42011L114.875 5.52949Z" fill="white"/>
</g>
<defs>
<clipPath id="clip0_141_9544">
<rect width="124" height="17.9847" fill="white"/>
</clipPath>
</defs>
</svg>
