<svg width="88" height="30" viewBox="0 0 88 30" fill="none" xmlns="http://www.w3.org/2000/svg">
<g clip-path="url(#clip0_140_9542)">
<path d="M7.84981 29.5176C5.71831 29.5176 3.92085 28.7978 2.48535 27.3582C1.04903 25.903 0.339081 24.1253 0.339081 22.0102C0.339081 19.8943 1.06381 18.087 2.51408 16.5883C3.97831 15.1043 5.76181 14.3698 7.87935 14.3698C9.99608 14.3698 11.7796 15.1043 13.2299 16.5883C14.6941 18.0722 15.4188 19.8647 15.4188 21.9659C15.4188 24.067 14.6941 25.8595 13.2299 27.3139C11.7648 28.783 9.99608 29.5176 7.84981 29.5176ZM12.4034 21.9503C12.4034 20.5993 11.9684 19.497 11.0984 18.6016C10.2136 17.7045 9.15481 17.249 7.89331 17.249C6.63181 17.249 5.55908 17.7045 4.68908 18.6008C3.80431 19.497 3.38408 20.628 3.38408 21.9511C3.38408 23.2733 3.81908 24.3904 4.67431 25.2866C5.55908 26.1821 6.63181 26.608 7.90808 26.608C9.18435 26.608 10.2571 26.1681 11.1419 25.2866C11.9823 24.3904 12.4173 23.2881 12.4034 21.9511V21.9503ZM19.232 29.2681V23.4793C19.232 21.8772 20.2038 20.7462 21.6828 20.7462C23.0313 20.7462 23.9309 21.7016 23.9309 23.4202V29.2681H26.6853V22.6561C26.6853 21.2017 26.2799 20.0995 25.4673 19.3214C24.6704 18.5417 23.6699 18.1452 22.5093 18.1452C21.0016 18.1452 19.7253 18.8946 19.1606 19.9525V18.4391H16.4628V29.2533H19.2329V29.2681H19.232ZM38.4886 23.6262C38.4886 24.0079 38.4451 24.4191 38.3868 24.8598H30.3976C30.7891 26.3881 31.8331 27.1662 33.5148 27.1662C34.6754 27.1662 36.0378 26.7115 36.9661 26.0795L38.0684 28.0485C36.7199 29.0334 35.1678 29.5324 33.4139 29.5324C31.5286 29.5324 30.1079 28.9743 29.1074 27.8868C28.106 26.7993 27.6136 25.4483 27.6136 23.8758C27.6136 22.2301 28.1208 20.8784 29.1648 19.8056C30.2088 18.7337 31.5286 18.2043 33.1816 18.2043C34.7328 18.2043 36.0239 18.7042 37.0244 19.6735C37.9814 20.6288 38.4886 21.9363 38.4886 23.6262ZM33.1529 20.5107C31.7609 20.5107 30.7316 21.3626 30.3976 22.7727H35.8203C35.5593 21.3626 34.5588 20.5107 33.1529 20.5107ZM43.8826 29.5168C41.6354 29.5168 39.59 28.5475 38.4016 26.7837L40.0694 24.7416C41.0116 26.0639 42.4184 26.7845 43.9113 26.7845C45.1006 26.7845 45.9854 26.1525 45.9854 25.2119C45.9854 24.6243 45.5504 24.0957 44.6804 23.6837C44.4916 23.5811 44.0131 23.4046 43.244 23.1108C42.6619 22.8839 42.0955 22.6188 41.5484 22.3171C40.0259 21.4209 39.2568 20.216 39.2568 18.673C39.2568 17.4394 39.7066 16.4258 40.6201 15.6173C41.5336 14.8097 42.7376 14.3837 44.1871 14.3837C46.0724 14.3837 47.6523 15.0444 48.9434 16.3667L47.3921 18.5121C46.5944 17.6454 45.3033 17.1456 44.2158 17.1456C43.0561 17.1456 42.3601 17.7037 42.3601 18.5564C42.3601 19.1293 42.7516 19.6144 43.5346 20.0108L44.9701 20.6428C45.7679 20.9801 46.3621 21.2305 46.7249 21.4209C48.3631 22.2293 49.1896 23.4481 49.1896 25.065C49.1896 26.3725 48.6971 27.4452 47.7254 28.2824C46.7388 29.0908 45.4634 29.5168 43.8826 29.5168ZM49.6533 23.8602C49.6533 22.2736 50.1753 20.9219 51.2628 19.8344C52.3364 18.7181 53.7136 18.174 55.3666 18.174C57.0344 18.174 58.3968 18.7321 59.4704 19.8344C60.5431 20.9219 61.079 22.2736 61.079 23.8602C61.079 25.4614 60.5579 26.8132 59.4704 27.9007C58.4116 29.003 57.0344 29.5463 55.3666 29.5463C53.6988 29.5463 52.3364 28.9882 51.2628 27.9007C50.1901 26.8132 49.6533 25.4614 49.6533 23.8602ZM53.2646 26.0639C53.8293 26.6515 54.5401 26.9601 55.3814 26.9601C56.2218 26.9601 56.9039 26.6663 57.4694 26.0639C58.029 25.4678 58.3356 24.6778 58.3246 23.8602C58.3246 23.0082 58.0349 22.2736 57.4694 21.6852C56.903 21.0983 56.2218 20.7897 55.3814 20.7897C54.5401 20.7897 53.8301 21.0835 53.2638 21.686C52.6983 22.2736 52.4234 23.0074 52.4234 23.861C52.4234 24.7121 52.6852 25.4475 53.2646 26.0639ZM64.7478 16.7639C65.4003 16.1024 65.4003 14.9566 64.7478 14.3246C64.0953 13.6631 62.9643 13.6631 62.3266 14.3246C61.6741 14.9566 61.6741 16.1024 62.3266 16.7639C62.9643 17.4098 64.1101 17.4098 64.7478 16.7639ZM64.9079 18.4678H62.1526V29.2821H64.9079V18.4686V18.4678ZM69.2144 14.1917V29.2681H66.4591V14.1933H69.2144V14.1917ZM74.2743 0.809264L74.9129 0C75.6959 0.381651 79.8136 1.23441 82.3218 2.35064C83.5694 2.90875 84.8309 3.6581 85.7879 4.83424C86.7449 6.00956 87.3391 7.61086 87.3391 9.50598C87.3391 11.5488 86.4404 13.0024 85.5408 13.8404C85.1058 14.2376 84.6708 14.5167 84.3228 14.7071C84.7143 16.6613 84.7291 18.5564 84.7291 20.129H82.1191C82.1191 16.4996 82.3218 12.7094 78.3198 9.50598L79.9154 7.39007C81.6989 8.81572 82.8438 10.417 83.5398 12.0626C83.6129 12.0044 83.6564 11.9748 83.7434 11.9009C84.2219 11.4454 84.7291 10.8134 84.7291 9.50598C84.7291 8.13942 84.3376 7.25793 83.7434 6.52336C83.1483 5.78878 82.3218 5.20194 81.2926 4.7456C79.5674 3.9823 77.6821 3.64415 76.0726 3.05649C75.5801 3.87889 74.2751 6.19998 74.2751 10.0789C74.2751 12.6068 74.9564 13.6787 75.5358 14.2073C75.9631 14.591 76.513 14.8101 77.087 14.8253C77.5516 14.8253 78.4799 14.3254 79.6544 13.8256L80.6401 16.2649C79.7413 16.6465 78.6539 17.4698 77.0879 17.4698C76.3771 17.4698 74.9999 17.2646 73.7819 16.1475C73.2451 15.6625 72.8684 15.2365 72.4038 14.1785C71.9401 13.1206 71.6651 11.7688 71.6651 10.0797C71.6651 6.40599 72.5351 3.32077 74.2751 0.808443L74.2743 0.809264Z" fill="white"/>
</g>
<defs>
<clipPath id="clip0_140_9542">
<rect width="87" height="29.5472" fill="white" transform="translate(0.339081)"/>
</clipPath>
</defs>
</svg>
