<svg viewBox="0 0 20 24"  xmlns="http://www.w3.org/2000/svg" style="display:none">

	<symbol viewBox="0 0 17 16" id="linkedin">
		<path d="M3.85743 2.43792C3.85952 2.68983 3.80901 2.93941 3.70913 3.17068C3.60925 3.40196 3.46221 3.60985 3.27741 3.78106C3.0926 3.95226 2.8741 4.08301 2.63588 4.16495C2.39765 4.24689 2.14495 4.27822 1.89393 4.25692C1.6485 4.26976 1.40304 4.23202 1.1728 4.14605C0.942557 4.06007 0.732442 3.92769 0.555497 3.75712C0.378552 3.58655 0.238551 3.38143 0.144185 3.1545C0.0498193 2.92757 0.00310155 2.68366 0.00693169 2.43792C0.00385902 2.18796 0.0528267 1.94009 0.150722 1.71008C0.248617 1.48007 0.393298 1.27294 0.575567 1.10186C0.757836 0.930786 0.973706 0.799503 1.20945 0.71636C1.4452 0.633218 1.69567 0.600034 1.94493 0.618919C2.19244 0.602427 2.44067 0.637456 2.67394 0.721791C2.90722 0.806127 3.12047 0.937935 3.3002 1.10889C3.47994 1.27984 3.62227 1.48621 3.71818 1.71497C3.81409 1.94373 3.86151 2.1899 3.85743 2.43792ZM0.100432 5.71892H3.73843V17.3809H0.100432V5.71892ZM5.91443 9.41642C5.91443 7.95442 5.86343 6.73892 5.82093 5.68492H8.97443L9.14443 7.30842H9.21243C9.60482 6.71303 10.1424 6.22738 10.7744 5.89724C11.4064 5.5671 12.1121 5.40334 12.8249 5.42142C15.2134 5.42142 17.0069 7.01942 17.0069 10.4704V17.3809H13.3689V10.9039C13.3689 9.39942 12.8419 8.35392 11.5244 8.35392C11.1116 8.36046 10.711 8.49473 10.3777 8.73827C10.0443 8.98181 9.79463 9.32265 9.66293 9.71392C9.56987 10.0077 9.52959 10.3156 9.54393 10.6234V17.3639H5.91443V9.41642Z"/>
	</symbol>

	<symbol viewBox="0 0 17 16" id="instagram">
		<path fill-rule="evenodd" clip-rule="evenodd" d="M10.407 0C10.418 0.002 10.429 0.006 10.439 0.007C10.777 0.015 11.115 0.022 11.453 0.033C11.805 0.043 12.156 0.061 12.506 0.107C12.923 0.163 13.332 0.257 13.725 0.41C14.811 0.835 15.586 1.583 16.045 2.655C16.295 3.241 16.413 3.859 16.445 4.492C16.474 5.045 16.482 5.598 16.5 6.152C16.5 6.165 16.505 6.178 16.507 6.192V9.809C16.505 9.819 16.501 9.829 16.5 9.84C16.492 10.2 16.489 10.56 16.473 10.92C16.459 11.255 16.439 11.59 16.406 11.923C16.3601 12.3873 16.2479 12.8425 16.073 13.275C15.8808 13.7693 15.5927 14.2207 15.2253 14.6031C14.8578 14.9855 14.4182 15.2913 13.932 15.503C13.323 15.778 12.677 15.904 12.015 15.938C11.463 15.967 10.911 15.975 10.359 15.993C10.347 15.993 10.336 15.998 10.324 16H6.68996C6.67996 15.998 6.66996 15.994 6.65896 15.993L5.39096 15.959C4.98857 15.9506 4.5874 15.9114 4.19096 15.842C3.69967 15.7577 3.22522 15.5946 2.78596 15.359C1.94998 14.9108 1.29933 14.1815 0.948958 13.3C0.723502 12.7314 0.594726 12.1291 0.567958 11.518C0.540958 11.043 0.531958 10.568 0.514958 10.092L0.506958 9.901V6.099C0.508958 6.089 0.512958 6.079 0.513958 6.068C0.519958 5.805 0.522958 5.542 0.530958 5.279C0.543958 4.875 0.556958 4.469 0.605958 4.067C0.657958 3.642 0.748958 3.227 0.900958 2.825C1.29696 1.775 2.00096 1.005 3.01696 0.525C3.64296 0.23 4.31096 0.1 4.99696 0.06C5.47196 0.034 5.94696 0.025 6.41996 0.008L6.60696 0H10.409H10.407ZM8.51096 3.892C7.69984 3.89144 6.90671 4.13101 6.23154 4.58051C5.55637 5.03001 5.02938 5.66933 4.71699 6.41788C4.4046 7.16643 4.32081 7.9907 4.47616 8.7868C4.63151 9.5829 5.01906 10.3152 5.58996 10.8914C6.16086 11.4676 6.88955 11.8618 7.68418 12.0245C8.47882 12.1872 9.30383 12.111 10.0552 11.8055C10.8066 11.5001 11.4508 10.979 11.9065 10.308C12.3622 9.63698 12.609 8.84609 12.616 8.035C12.6208 7.49277 12.5183 6.95494 12.3142 6.45257C12.1101 5.95019 11.8085 5.49322 11.4269 5.10803C11.0452 4.72283 10.591 4.41706 10.0905 4.20834C9.59007 3.99963 9.05321 3.89211 8.51096 3.892V3.892ZM8.55096 5.334C9.25802 5.34196 9.93297 5.63047 10.4273 6.13607C10.9217 6.64166 11.1949 7.32293 11.187 8.03C11.179 8.73707 10.8905 9.41201 10.3849 9.90636C9.87929 10.4007 9.19803 10.674 8.49096 10.666C7.79561 10.6408 7.13764 10.3449 6.65745 9.84131C6.17726 9.33777 5.91287 8.6665 5.9207 7.97074C5.92853 7.27498 6.20796 6.60983 6.69936 6.11722C7.19076 5.62461 7.85522 5.34354 8.55096 5.334V5.334ZM12.778 2.767C12.5306 2.77762 12.2969 2.88319 12.1254 3.06173C11.9539 3.24027 11.8579 3.47805 11.8572 3.72561C11.8566 3.97317 11.9514 4.21145 12.122 4.39088C12.2925 4.57031 12.5257 4.67709 12.773 4.689C13.0203 4.67838 13.254 4.57281 13.4255 4.39427C13.597 4.21573 13.693 3.97795 13.6937 3.73039C13.6943 3.48283 13.5995 3.24455 13.4289 3.06512C13.2584 2.88569 13.0252 2.77891 12.778 2.767V2.767Z"/>
	</symbol>
		
	<symbol viewBox="0 0 27 27" id="next-arrow">
		<path d="M11.5 9.5L15.5 13.5L11.5 17.5" stroke="white" stroke-width="1.5" stroke-linecap="square"/>
	</symbol>
    
    <symbol viewBox="0 0 22 22" id="plus">
		<rect y="10.5" width="22" height="1.5" fill="white"/>
		<rect x="10" y="22" width="22" height="1.5" transform="rotate(-90 10 22)" fill="white"/>
	</symbol>

    <symbol viewBox="0 0 27 27" id="prev-arrow">
		<path d="M15.5 9.5L11.5 13.5L15.5 17.5" stroke="white" stroke-width="1.5" stroke-linecap="square"/>
	</symbol>

    <symbol viewBox="0 0 15 10" id="quote">
		<path d="M5.56634 0L6.81638 1.76477C5.19868 2.96579 4.19374 3.90945 3.80157 4.59575H3.87511C4.48787 4.59575 5.0026 4.8286 5.41928 5.2943C5.86047 5.73549 6.08106 6.27472 6.08106 6.912C6.08106 7.5983 5.8237 8.18655 5.30898 8.67677C4.81877 9.16698 4.21826 9.41209 3.50745 9.41209C2.72311 9.41209 2.06132 9.13022 1.52209 8.56647C1.00736 8.00273 0.75 7.29192 0.75 6.43404C0.75 4.2526 2.35545 2.10792 5.56634 0ZM11.2352 4.59575H11.3087C11.9215 4.59575 12.4362 4.8286 12.8529 5.2943C13.2941 5.73549 13.5147 6.27472 13.5147 6.912C13.5147 7.5983 13.2573 8.18655 12.7426 8.67677C12.2524 9.16698 11.6519 9.41209 10.9411 9.41209C10.1567 9.41209 9.49494 9.13022 8.9557 8.56647C8.44098 8.00273 8.18362 7.29192 8.18362 6.43404C8.18362 4.2526 9.78906 2.10792 13 0L14.25 1.76477C12.6323 2.96579 11.6274 3.90945 11.2352 4.59575Z"/>
	</symbol>

	<symbol viewBox="0 0 11 11" id="min-plus">
		<rect x="0.700012" y="4.89999" width="10" height="1.5" fill="white"/>
		<rect x="4.90001" y="10.7" width="10" height="1.5" transform="rotate(-90 4.90001 10.7)" fill="white"/>
	</symbol>

	<symbol viewBox="0 0 22 20" id="twitter">
		<mask id="mask0_114_817" style="mask-type:luminance" maskUnits="userSpaceOnUse" x="1" y="0" width="20" height="20">
			<path d="M20.8437 0.125H1.15625V19.8727H20.8437V0.125Z"/>
		</mask>
		<g mask="url(#mask0_114_817)">
			<path d="M18.82 5.97761C18.8325 6.15302 18.8325 6.32847 18.8325 6.50388C18.8325 11.8543 14.7726 18.0192 7.35231 18.0192C5.06626 18.0192 2.94263 17.355 1.15625 16.2023C1.48106 16.2399 1.79333 16.2524 2.13063 16.2524C4.0169 16.2524 5.75333 15.6134 7.13995 14.5233C5.36606 14.4857 3.87951 13.3204 3.36733 11.7165C3.61719 11.754 3.86701 11.7791 4.12938 11.7791C4.49163 11.7791 4.85393 11.729 5.19119 11.6413C3.34238 11.2654 1.95571 9.63644 1.95571 7.66919V7.61909C2.49285 7.91982 3.1175 8.10777 3.77954 8.13281C2.69273 7.40603 1.9807 6.16556 1.9807 4.76216C1.9807 4.01036 2.18054 3.32119 2.53034 2.71973C4.51659 5.17566 7.5022 6.77951 10.85 6.95496C10.7876 6.65423 10.7501 6.34101 10.7501 6.02774C10.7501 3.79733 12.549 1.98047 14.785 1.98047C15.9468 1.98047 16.9961 2.46914 17.7331 3.25856C18.645 3.08313 19.5195 2.74481 20.294 2.28119C19.9941 3.22098 19.3571 4.01039 18.5201 4.51157C19.3321 4.42389 20.1191 4.19831 20.8436 3.88508C20.2941 4.68698 19.607 5.40118 18.82 5.97761Z"/>
		</g>
	</symbol>

	<symbol viewBox="0 0 10 20" id="facebook">
		<g clip-path="url(#clip0_114_811)">
			<mask id="mask0_114_811" style="mask-type:luminance" maskUnits="userSpaceOnUse" x="0" y="0" width="10" height="20">
				<path d="M9.82187 0.357422H0.180664V19.0889H9.82187V0.357422Z"/>
			</mask>
			<g mask="url(#mask0_114_811)">
				<path d="M2.98173 19.0889V10.711H0.180664V7.38173H2.98173V4.75859C2.98173 1.90862 4.72007 0.357422 7.25818 0.357422C8.4743 0.357422 9.51875 0.448884 9.82187 0.489127V3.46715H8.06162C6.68118 3.46715 6.41458 4.12567 6.41458 5.08785V7.38173H9.52972L9.10243 10.711H6.41458V19.0889"/>
			</g>
		</g>
		<defs>
			<clipPath id="clip0_114_811">
				<rect width="9.91667" height="19.8333" fill="white" transform="translate(0.0419922 0.0839844)"/>
			</clipPath>
		</defs>
	</symbol>

</svg>