<svg width="75" height="26" viewBox="0 0 75 26" fill="none" xmlns="http://www.w3.org/2000/svg">
<path d="M75 0.501968V4.23294H70.5515V13.6303C70.5515 14.3717 70.7189 14.9099 71.0537 15.2447C71.3886 15.5556 71.8789 15.735 72.5246 15.7828C73.1943 15.8067 74.0194 15.7948 75 15.7469V19.2268C72.0343 19.5855 69.9058 19.3344 68.6143 18.4734C67.3228 17.5885 66.677 15.9742 66.677 13.6303V4.23294H64.7865C64.7865 4.23294 64.4599 3.15339 63.8405 2.32893C62.849 1.00924 61.9847 0.501968 61.9847 0.501968H66.677L70.5515 0.501953L75 0.501968Z" fill="white"/>
<path d="M9.17552 21.7735C6.90096 21.7735 4.67266 21.1138 2.76117 19.8695L0.735779 23.0178C6.05021 26.478 12.9166 26.349 18.0958 22.6915L15.9529 19.6221C13.9703 21.0277 11.5995 21.7807 9.17196 21.7771" fill="url(#paint0_linear_1_8)"/>
<path d="M14.936 9.87668C14.936 12.9963 12.4336 15.5278 9.33674 15.5314C6.23992 15.5314 3.72687 13.0106 3.72331 9.89101C3.72331 6.82876 6.14025 4.32232 9.17656 4.23986V4.24697H9.60371C12.5867 4.39757 14.9288 6.87182 14.936 9.88024V9.87668ZM18.6628 4.24697V0.496285H9.8315C9.66422 0.485521 9.49692 0.481936 9.32962 0.481936C4.17537 0.478351 0 4.68802 0 9.88024C0 15.0725 4.17893 19.2786 9.33318 19.2786C14.4874 19.2786 18.6628 15.0688 18.6628 9.87668C18.6628 7.84714 18.0078 5.86776 16.8012 4.24341H18.6628V4.24697Z" fill="white"/>
<path d="M52.3968 15.4848C49.2771 15.4848 46.7456 12.9824 46.742 9.88557C46.742 6.78875 49.2628 4.27569 52.3824 4.27213C55.4447 4.27213 57.9511 6.68908 58.0336 9.72539H58.0265V10.1525C57.8759 13.1355 55.4016 15.4776 52.3932 15.4848H52.3968ZM58.0265 19.2117H61.7772V10.3803C61.7879 10.2131 61.7915 10.0458 61.7915 9.87845C61.7951 4.7242 57.5854 0.548828 52.3932 0.548828C47.201 0.548828 42.9948 4.72776 42.9948 9.88201C42.9948 15.0363 47.2046 19.2117 52.3968 19.2117C54.4263 19.2117 56.4057 18.5566 58.03 17.35V19.2117H58.0265Z" fill="white"/>
<path d="M37.6131 16.6168C35.7955 18.4344 33.5593 19.3433 30.9045 19.3433C28.2498 19.3433 26.0136 18.4344 24.1959 16.6168C22.3544 14.7752 21.4336 12.539 21.4336 9.9082C21.4336 7.27739 22.3544 5.04119 24.1959 3.19962C26.0136 1.38197 28.2498 0.473145 30.9045 0.473145C33.5593 0.473145 35.7955 1.38197 37.6131 3.19962C39.4547 5.04119 40.3755 7.27739 40.3755 9.9082C40.3755 12.539 39.4547 14.7752 37.6131 16.6168ZM25.3081 9.9082C25.3081 11.5345 25.8462 12.8858 26.9224 13.962C27.9987 15.0383 29.326 15.5764 30.9045 15.5764C32.483 15.5764 33.8104 15.0383 34.8866 13.962C35.9629 12.8858 36.501 11.5345 36.501 9.9082C36.501 8.28188 35.9629 6.9306 34.8866 5.85435C33.8104 4.77811 32.483 4.23999 30.9045 4.23999C29.326 4.23999 27.9987 4.77811 26.9224 5.85435C25.8462 6.9306 25.3081 8.28188 25.3081 9.9082Z" fill="white"/>
<defs>
<linearGradient id="paint0_linear_1_8" x1="3.28514" y1="15.0461" x2="21.6502" y2="35.6421" gradientUnits="userSpaceOnUse">
<stop stop-color="#FF4A0A"/>
<stop offset="1" stop-color="#FFA107"/>
</linearGradient>
</defs>
</svg>
