<svg width="79" height="28" viewBox="0 0 79 28" fill="none" xmlns="http://www.w3.org/2000/svg">
<path d="M41.0036 10.2259C41.0036 14.7285 37.3206 18.4057 32.7439 18.4057C28.1671 18.4057 24.4842 14.7285 24.4842 10.2259C24.4842 5.72327 28.1671 2.04606 32.7439 2.04606C37.3206 2.04606 41.0036 5.72326 41.0036 10.2259Z" stroke="black" stroke-width="4.09216"/>
<path d="M79 20.6914V16.2462C76.3329 16.2462 74.2214 15.0192 74.2214 11.7783V4.44516H79V-1.62125e-05H74.2214H67.8155V4.44516H69.7763V12.7785C70.3437 18.7341 74.9623 20.6914 79 20.6914Z" fill="black"/>
<path d="M9.98047 23.16C7.50634 23.16 5.08254 22.4424 3.00334 21.0889L0.800243 24.5135C6.58095 28.2774 14.0498 28.137 19.6834 24.1586L17.3525 20.8199C15.1959 22.3488 12.6172 23.1679 9.9766 23.164" fill="url(#paint0_linear_169_18)"/>
<path d="M16.2464 10.2191C16.2464 13.6124 13.5245 16.366 10.1559 16.3699C6.78739 16.3699 4.05384 13.628 4.04997 10.2346C4.04997 6.90373 6.67898 4.17737 9.98169 4.08768V4.09541H10.4463C13.691 4.25923 16.2386 6.95056 16.2464 10.2229V10.2191ZM20.3003 4.09541V0.0156471H10.6941C10.5121 0.00393841 10.3302 3.87283e-05 10.1482 3.87283e-05C4.5417 -0.00386069 -1.14441e-05 4.57515 -1.14441e-05 10.2229C-1.14441e-05 15.8707 4.54557 20.4459 10.152 20.4459C15.7585 20.4459 20.3003 15.8667 20.3003 10.2191C20.3003 8.01145 19.5878 5.85841 18.2752 4.09154H20.3003V4.09541Z" fill="black"/>
<path d="M55.4365 16.3676C52.0157 16.3676 49.2397 13.6254 49.2358 10.2317C49.2358 6.83803 51.9999 4.08409 55.4208 4.08019C58.7787 4.08019 61.5271 6.72881 61.6176 10.0562H61.6098V10.5243C61.4446 13.7931 58.7315 16.3598 55.4326 16.3676H55.4365ZM61.6098 20.4517H65.7226V10.7739C65.7344 10.5906 65.7383 10.4072 65.7383 10.2239C65.7422 4.57559 61.1261 -1.62125e-05 55.4326 -1.62125e-05C49.739 -1.62125e-05 45.1268 4.57949 45.1268 10.2278C45.1268 15.8761 49.743 20.4517 55.4365 20.4517C57.662 20.4517 59.8325 19.7339 61.6137 18.4116V20.4517H61.6098Z" fill="black"/>
<defs>
<linearGradient id="paint0_linear_169_18" x1="3.57329" y1="15.8424" x2="23.5496" y2="38.2455" gradientUnits="userSpaceOnUse">
<stop stop-color="#FF4A0A"/>
<stop offset="1" stop-color="#FFA107"/>
</linearGradient>
</defs>
</svg>
