<svg width="18" height="18" viewBox="0 0 18 18" fill="none" xmlns="http://www.w3.org/2000/svg">
<path d="M3.85743 2.43792C3.85952 2.68983 3.80901 2.93941 3.70913 3.17068C3.60925 3.40196 3.46221 3.60985 3.27741 3.78106C3.0926 3.95226 2.8741 4.08301 2.63588 4.16495C2.39765 4.24689 2.14495 4.27822 1.89393 4.25692C1.6485 4.26976 1.40304 4.23202 1.1728 4.14605C0.942557 4.06007 0.732442 3.92769 0.555497 3.75712C0.378552 3.58655 0.238551 3.38143 0.144185 3.1545C0.0498193 2.92757 0.00310155 2.68366 0.00693169 2.43792C0.00385902 2.18796 0.0528267 1.94009 0.150722 1.71008C0.248617 1.48007 0.393298 1.27294 0.575567 1.10186C0.757836 0.930786 0.973706 0.799503 1.20945 0.71636C1.4452 0.633218 1.69567 0.600034 1.94493 0.618919C2.19244 0.602427 2.44067 0.637456 2.67394 0.721791C2.90722 0.806127 3.12047 0.937935 3.3002 1.10889C3.47994 1.27984 3.62227 1.48621 3.71818 1.71497C3.81409 1.94373 3.86151 2.1899 3.85743 2.43792ZM0.100432 5.71892H3.73843V17.3809H0.100432V5.71892ZM5.91443 9.41642C5.91443 7.95442 5.86343 6.73892 5.82093 5.68492H8.97443L9.14443 7.30842H9.21243C9.60482 6.71303 10.1424 6.22738 10.7744 5.89724C11.4064 5.5671 12.1121 5.40334 12.8249 5.42142C15.2134 5.42142 17.0069 7.01942 17.0069 10.4704V17.3809H13.3689V10.9039C13.3689 9.39942 12.8419 8.35392 11.5244 8.35392C11.1116 8.36046 10.711 8.49473 10.3777 8.73827C10.0443 8.98181 9.79463 9.32265 9.66293 9.71392C9.56987 10.0077 9.52959 10.3156 9.54393 10.6234V17.3639H5.91443V9.41642Z" fill="white"/>
</svg>
