<svg width="15" height="10" viewBox="0 0 15 10" fill="none" xmlns="http://www.w3.org/2000/svg">
<path d="M5.56634 0L6.81638 1.76477C5.19868 2.96579 4.19374 3.90945 3.80157 4.59575H3.87511C4.48787 4.59575 5.0026 4.8286 5.41928 5.2943C5.86047 5.73549 6.08106 6.27472 6.08106 6.912C6.08106 7.5983 5.8237 8.18655 5.30898 8.67677C4.81877 9.16698 4.21826 9.41209 3.50745 9.41209C2.72311 9.41209 2.06132 9.13022 1.52209 8.56647C1.00736 8.00273 0.75 7.29192 0.75 6.43404C0.75 4.2526 2.35545 2.10792 5.56634 0ZM11.2352 4.59575H11.3087C11.9215 4.59575 12.4362 4.8286 12.8529 5.2943C13.2941 5.73549 13.5147 6.27472 13.5147 6.912C13.5147 7.5983 13.2573 8.18655 12.7426 8.67677C12.2524 9.16698 11.6519 9.41209 10.9411 9.41209C10.1567 9.41209 9.49494 9.13022 8.9557 8.56647C8.44098 8.00273 8.18362 7.29192 8.18362 6.43404C8.18362 4.2526 9.78906 2.10792 13 0L14.25 1.76477C12.6323 2.96579 11.6274 3.90945 11.2352 4.59575Z" fill="black"/>
</svg>
