<svg width="81" height="46" viewBox="0 0 81 46" fill="none" xmlns="http://www.w3.org/2000/svg">
<rect x="1.74243" y="1.74243" width="42.692" height="42.692" rx="21.346" fill="#F4F4F4"/>
<g clip-path="url(#clip0_73_199)">
<path d="M31.9737 23.0083C31.9737 22.3639 31.9158 21.7443 31.8084 21.1494H23.2493V24.6689H28.1402C27.9254 25.8007 27.281 26.7591 26.3144 27.4035V29.692H29.2638C30.9823 28.1058 31.9737 25.776 31.9737 23.0083Z" fill="#4285F4"/>
<path d="M23.2479 31.8895C25.7016 31.8895 27.7587 31.0799 29.2624 29.6919L26.3129 27.4034C25.5033 27.9487 24.4706 28.2792 23.2479 28.2792C20.885 28.2792 18.8774 26.6847 18.1587 24.5366H15.1349V26.8829C16.6303 29.8489 19.6953 31.8895 23.2479 31.8895Z" fill="#34A853"/>
<path d="M18.1592 24.5282C17.9775 23.9829 17.8701 23.4046 17.8701 22.8015C17.8701 22.1984 17.9775 21.6201 18.1592 21.0748V18.7285H15.1355C14.5158 19.9512 14.1606 21.3309 14.1606 22.8015C14.1606 24.2721 14.5158 25.6518 15.1355 26.8745L17.49 25.0404L18.1592 24.5282Z" fill="#FBBC05"/>
<path d="M23.2479 17.3325C24.5863 17.3325 25.7759 17.7951 26.726 18.6874L29.3285 16.085C27.7505 14.6144 25.7016 13.7139 23.2479 13.7139C19.6953 13.7139 16.6303 15.7545 15.1349 18.7287L18.1587 21.075C18.8774 18.927 20.885 17.3325 23.2479 17.3325Z" fill="#EA4335"/>
</g>
<rect x="1.74243" y="1.74243" width="42.692" height="42.692" rx="21.346" stroke="white" stroke-width="2.51514"/>
<rect x="36.9193" y="1.74243" width="42.692" height="42.692" rx="21.346" fill="#F4F4F4"/>
<g clip-path="url(#clip1_73_199)">
<path d="M49.962 25.2638C49.962 26.115 50.149 26.7685 50.3935 27.1639C50.7141 27.6817 51.1922 27.9011 51.6797 27.9011C52.3084 27.9011 52.8836 27.7453 53.992 26.2142C54.88 24.9871 55.9263 23.2646 56.6303 22.1847L57.8226 20.3552C58.6508 19.0846 59.6094 17.6722 60.7085 16.7148C61.6058 15.9334 62.5737 15.4993 63.5478 15.4993C65.1833 15.4993 66.7411 16.4458 67.9334 18.221C69.2382 20.1653 69.8716 22.6142 69.8716 25.1413C69.8716 26.6437 69.575 27.7476 69.0705 28.6197C68.5831 29.4631 67.633 30.3058 66.0348 30.3058V27.9011C67.4032 27.9011 67.7448 26.6452 67.7448 25.208C67.7448 23.1599 67.2666 20.887 66.2133 19.2629C65.4658 18.111 64.4971 17.4071 63.4314 17.4071C62.2787 17.4071 61.3512 18.2753 60.3087 19.8234C59.7545 20.6459 59.1856 21.6482 58.5468 22.7793L57.8435 24.0235C56.4308 26.5251 56.073 27.0949 55.3667 28.0352C54.1286 29.6817 53.0714 30.3058 51.6797 30.3058C50.0287 30.3058 48.9847 29.5918 48.3382 28.5158C47.8103 27.6391 47.5511 26.4887 47.5511 25.1778L49.962 25.2638Z" fill="#0081FB"/>
<path d="M49.4514 18.3908C50.5567 16.6892 52.1518 15.4993 53.9813 15.4993C55.0408 15.4993 56.0941 15.8125 57.194 16.7094C58.3971 17.69 59.6794 19.3048 61.2791 21.9661L61.8527 22.9211C63.2375 25.2251 64.0253 26.4104 64.4864 26.9693C65.0794 27.6871 65.4947 27.9011 66.0341 27.9011C67.4026 27.9011 67.7441 26.6452 67.7441 25.208L69.8709 25.1413C69.8709 26.6437 69.5744 27.7476 69.0699 28.6197C68.5824 29.4631 67.6323 30.3058 66.0341 30.3058C65.0406 30.3058 64.1604 30.0903 63.187 29.1732C62.4388 28.4693 61.564 27.2189 60.891 26.0948L58.8892 22.7552C57.8848 21.0792 56.9634 19.8296 56.4302 19.2637C55.8566 18.6551 55.1192 17.9202 53.9425 17.9202C52.9901 17.9202 52.1813 18.5877 51.5044 19.6087L49.4514 18.3908Z" fill="url(#paint0_linear_73_199)"/>
<path d="M53.9431 17.9202C52.9907 17.9202 52.1819 18.5877 51.5051 19.6087C50.548 21.0513 49.962 23.2002 49.962 25.2638C49.962 26.115 50.149 26.7685 50.3935 27.1639L48.3382 28.5158C47.8103 27.6391 47.5511 26.4887 47.5511 25.1778C47.5511 22.794 48.2062 20.3094 49.452 18.3908C50.5573 16.6892 52.1524 15.4993 53.9819 15.4993L53.9431 17.9202Z" fill="url(#paint1_linear_73_199)"/>
</g>
<rect x="36.9193" y="1.74243" width="42.692" height="42.692" rx="21.346" stroke="white" stroke-width="2.51514"/>
<defs>
<linearGradient id="paint0_linear_73_199" x1="52.2853" y1="24.5692" x2="67.654" y2="25.3464" gradientUnits="userSpaceOnUse">
<stop stop-color="#0064E1"/>
<stop offset="0.4" stop-color="#0064E1"/>
<stop offset="0.83" stop-color="#0073EE"/>
<stop offset="1" stop-color="#0082FB"/>
</linearGradient>
<linearGradient id="paint1_linear_73_199" x1="51.044" y1="26.2747" x2="51.044" y2="20.6157" gradientUnits="userSpaceOnUse">
<stop stop-color="#0082FB"/>
<stop offset="1" stop-color="#0064E0"/>
</linearGradient>
<clipPath id="clip0_73_199">
<rect width="17.8564" height="22.3205" fill="white" transform="translate(14.1601 11.9282)"/>
</clipPath>
<clipPath id="clip1_73_199">
<rect width="23.2133" height="22.3205" fill="white" transform="translate(46.6588 11.9282)"/>
</clipPath>
</defs>
</svg>
