<svg width="731" height="261" viewBox="0 0 731 261" fill="none" xmlns="http://www.w3.org/2000/svg">
<path d="M0 67.0907L80.3726 4.42731H121.24V256.103H66.4096V78.3292L28.2666 107.277L0 67.0907Z" fill="#F1F1F1"/>
<path d="M222.97 260.189C193.908 260.189 165.982 251.902 139.191 235.328L162.35 190.374C183.01 202.407 201.968 208.424 219.223 208.424C230.802 208.424 239.884 205.926 246.468 200.931C253.28 195.937 256.685 189.239 256.685 180.838C256.685 172.892 253.507 166.535 247.149 161.767C241.019 156.772 232.846 154.275 222.629 154.275H190.276V103.871H216.499C227.17 103.871 235.57 101.487 241.7 96.7196C248.058 91.9517 251.236 85.7081 251.236 77.9887C251.236 70.4963 248.285 64.4797 242.382 59.9389C236.478 55.171 228.986 52.7871 219.904 52.7871C205.828 52.7871 189.708 59.0307 171.545 71.518L144.981 30.9911C155.198 21.4554 167.571 13.963 182.102 8.51404C196.633 2.83801 211.617 0 227.056 0C250.214 0 269.399 6.24363 284.611 18.7309C300.277 31.4452 308.11 46.9975 308.11 65.3879C308.11 78.1022 304.137 89.5678 296.19 99.7846C288.471 110.001 278.368 117.267 265.88 121.581V122.943C281.319 126.348 293.352 133.727 301.98 145.079C310.835 156.204 315.262 169.486 315.262 184.925C315.262 207.402 306.634 225.565 289.379 239.415C272.578 253.264 250.442 260.189 222.97 260.189Z" fill="#F1F1F1"/>
<path d="M435.254 260.189C402.56 260.189 377.131 248.043 358.968 223.749C341.259 199.456 332.404 168.238 332.404 130.095C332.404 91.9517 341.259 60.7335 358.968 36.4401C377.131 12.1467 402.56 0 435.254 0C468.629 0 494.171 12.1467 511.88 36.4401C529.817 60.5065 538.785 91.7247 538.785 130.095C538.785 168.465 529.817 199.683 511.88 223.749C494.171 248.043 468.629 260.189 435.254 260.189ZM482.933 130.095C482.933 107.391 478.846 88.8866 470.672 74.583C462.953 60.0524 451.26 52.7871 435.595 52.7871C419.702 52.7871 407.896 60.0524 400.176 74.583C392.23 89.1137 388.256 107.618 388.256 130.095C388.256 153.934 392.23 172.778 400.176 186.628C408.35 200.477 420.156 207.402 435.595 207.402C451.033 207.402 462.726 200.477 470.672 186.628C478.846 172.778 482.933 153.934 482.933 130.095Z" fill="#F1F1F1"/>
<path d="M666.974 112.726H731V162.789H666.974V227.155L616.912 227.836V162.789H552.205V112.726H616.912V48.3598H666.974V112.726Z" fill="#F1F1F1"/>
</svg>
