<svg width="132" height="33" viewBox="0 0 132 33" fill="none" xmlns="http://www.w3.org/2000/svg">
<g clip-path="url(#clip0_140_9527)">
<path d="M55.3077 11.2629H51.3456H45.285V22.3242L48.1814 20.694V17.5449H51.3456H53.7174L54.5898 18.3776V20.694H57.4862V17.9925L55.8268 16.3623L57.4862 14.1734L55.3077 11.2629ZM53.7339 15.4021H51.3456H48.1814V13.3732H51.3456H53.756L54.5098 14.3497L53.7339 15.4021Z" fill="white"/>
<path d="M41.1665 11.2629H37.0415H31.0113V20.694H37.0415H41.1665L43.3478 17.7999L41.9811 15.9771L43.3478 14.1544L41.1665 11.2629ZM39.474 18.5838H37.0415H33.9077V16.9536H37.0415H39.474L40.1725 17.808L39.474 18.5838ZM39.474 15.0359H37.0415H33.9077V13.3732H37.0415H39.474L40.1725 14.1652L39.474 15.0359Z" fill="white"/>
<path d="M65.3068 11.2629H61.3116L59.1303 13.4085V18.5513L61.3116 20.6968H65.3068H69.3023L71.4834 18.5513V13.4058L69.3023 11.2603H65.3068V11.2629ZM68.587 18.5838H65.3068H62.0294V13.3732H65.3095H68.5896V18.5838H68.587Z" fill="white"/>
<path d="M131.677 11.2629H128.25L125.172 14.2927L122.09 11.2629H118.641L123.448 15.988L118.641 20.694H122.09L125.168 17.6643L128.25 20.694H131.677L126.872 15.988L131.677 11.2629Z" fill="white"/>
<path d="M94.1668 13.3732H97.0134V22.3242L99.9098 20.694V13.3732H102.76L104.891 11.2629H92.0354L94.1668 13.3732Z" fill="white"/>
<path d="M115.567 13.3732L117.698 11.2629H106.226V20.694H115.208L117.356 18.5838H109.122V16.9536H114.346L116.299 15.0359H109.122V13.3732H115.567Z" fill="white"/>
<path d="M87.4936 22.3242L90.3933 20.7076V11.2629H87.4936V22.3242Z" fill="white"/>
<path d="M82.4999 16.8885L75.5667 11.2629H73.5015V22.3242L76.3979 20.694V15.1933L83.2014 20.694H85.3963V11.2629H82.4999V16.8885Z" fill="white"/>
<path d="M17.9825 16.5977H17.5049H17.0272C16.1741 16.5977 15.4755 17.2839 15.4755 18.122V31.158C16.1713 31.3018 16.8477 31.1851 17.5022 30.8053C18.2035 30.3985 18.8771 29.696 19.5287 28.6924C19.5287 25.1689 19.5287 21.6455 19.5287 18.122C19.5315 17.2839 18.833 16.5977 17.9825 16.5977Z" fill="white"/>
<path d="M13.1952 16.5977H13.1649H12.2426C11.3895 16.5977 10.6909 17.2839 10.6909 18.122V31.8062C11.5938 32.6091 12.3724 32.9021 13.1649 32.6769C13.6757 32.5332 14.192 32.1751 14.747 31.6001C14.747 27.1056 14.747 22.6138 14.747 18.1194C14.747 17.2839 14.0484 16.5977 13.1952 16.5977Z" fill="white"/>
<path d="M8.41023 16.5977H7.93254H7.45492C6.60171 16.5977 5.90317 17.2839 5.90317 18.122V28.8985C6.53545 29.8153 7.21467 30.4364 7.92979 30.8271C8.57863 31.1797 9.25512 31.3424 9.95643 31.3641C9.95643 26.951 9.95643 22.5379 9.95643 18.122C9.96193 17.2839 9.26337 16.5977 8.41023 16.5977Z" fill="white"/>
<path d="M22.7671 16.5977H22.2895H21.8118C20.9587 16.5977 20.2601 17.2839 20.2601 18.122V28.2476C20.9531 28.3045 21.6296 28.1824 22.2867 27.8244C22.988 27.442 23.6672 26.7855 24.3133 25.7819C24.3133 23.2268 24.3133 20.6744 24.3133 18.122C24.3161 17.2839 23.6176 16.5977 22.7671 16.5977Z" fill="white"/>
<path d="M13.1675 10.7686H10.0337V12.3987H13.1675H15.6L16.3014 11.623L15.6 10.7686H13.1675Z" fill="white"/>
<path d="M17.506 3.04605L13.1655 0.406863L12.4974 0L7.93609 2.78023L4.16999 5.07494H7.93609H13.1655H17.2906L17.506 5.35974L19.4718 7.96912L18.1051 9.79185L19.4718 11.6146L17.506 14.2239L17.3016 14.4951H13.1655H7.93609H7.13815V8.85062H7.93609H13.1655H15.5981L16.2966 7.97993L15.5981 7.1879H13.1655H7.93609H0.707618L0.677246 14.3731V21.561V25.4208C2.09091 25.4208 4.94033 24.8159 4.91548 20.2482V17.3622C4.89892 16.5702 5.29651 16.0819 6.41198 16.1199H7.93334C9.67557 16.1199 11.4206 16.1172 13.1628 16.1172L17.5032 16.1145C19.0991 16.1145 20.6922 16.1117 22.2881 16.1117H22.9977C23.5278 16.1117 24.0027 16.3342 24.3148 16.6786V12.6616V7.1879L22.2881 5.95648L17.506 3.04605Z" fill="white"/>
</g>
<defs>
<clipPath id="clip0_140_9527">
<rect width="131" height="32.75" fill="white" transform="translate(0.677246)"/>
</clipPath>
</defs>
</svg>
