<svg width="111" height="23" viewBox="0 0 111 23" fill="none" xmlns="http://www.w3.org/2000/svg">
<g clip-path="url(#clip0_1_582)">
<path d="M109.118 19.8736H108.851V20.4753H109.103C109.333 20.4753 109.475 20.3815 109.475 20.1746C109.475 19.9763 109.349 19.8736 109.118 19.8736ZM109.659 21.6241L109.05 20.7533H108.851V21.593H108.5V19.5578H109.118C109.547 19.5578 109.832 19.7693 109.832 20.1507C109.832 20.4435 109.674 20.6337 109.419 20.7134L110.007 21.5453L109.659 21.6241ZM109.127 19.0108C108.27 19.0108 107.59 19.5967 107.59 20.6426C107.59 21.6788 108.27 22.2655 109.127 22.2655C109.991 22.2655 110.673 21.6788 110.673 20.6426C110.673 19.5967 109.983 19.0108 109.127 19.0108ZM109.127 22.4807C108.067 22.4807 107.328 21.7426 107.328 20.6426C107.328 19.5489 108.081 18.795 109.127 18.795C110.189 18.795 110.926 19.5401 110.926 20.6426C110.926 21.7364 110.173 22.4807 109.127 22.4807Z" fill="black"/>
<path d="M16.209 12.7871H10.7376C11.0791 12.2446 16.209 3.90696 16.209 3.90696V12.7871ZM13.8728 0.177917L0 22.4804H4.7166C4.7166 22.4804 8.13767 16.9284 8.25536 16.7382H16.2161L16.2196 22.4831L20.6956 22.4821V0.177917H13.8728Z" fill="black"/>
<path d="M23.8718 0.176697V22.4818H28.2229V0.177581L23.8718 0.176697Z" fill="black"/>
<path d="M31.3888 22.4827H35.7328V0.17749H31.3888V22.4827Z" fill="black"/>
<path d="M45.3075 11.948C42.9421 11.3303 42.4466 10.9834 42.5093 9.99763C42.5607 9.10475 43.2872 8.59062 44.5031 8.59062C46.0066 8.59062 47.8455 9.11979 49.425 10.0065L49.6737 10.1489L50.2728 6.427L50.1311 6.36063C48.5092 5.61996 46.5667 5.22528 44.5031 5.22528C42.5165 5.22528 40.8281 5.83853 39.737 6.94999C38.8742 7.83578 38.4309 8.98264 38.4529 10.256C38.529 13.6948 40.168 14.6673 44.05 15.6664C46.6172 16.2991 47.1393 16.6752 47.1197 17.8991C47.1057 18.9989 46.4491 19.4149 44.7031 19.4149C42.8775 19.4149 40.8183 18.7415 39.0326 17.5743L38.7732 17.4017L38.1698 21.1378L38.299 21.2094C39.6901 21.9741 42.067 22.7766 44.5712 22.7766C46.9994 22.7766 48.7923 22.2014 49.9019 21.0802C50.7666 20.2016 51.1914 19.0114 51.1718 17.5354C51.1152 13.8426 49.2516 12.9647 45.3075 11.948Z" fill="black"/>
<path d="M61.7375 18.7229L61.5118 18.7831C61.2127 18.8654 60.8348 18.907 60.3181 18.907C59.0296 18.907 58.4297 18.3256 58.4297 17.0682V9.17027H61.6198L61.6783 5.53947H58.4297V0.17688H54.1511V5.53947H51.9158V9.17027H54.1511V17.7247C54.1511 21.1121 55.9191 22.7688 59.5659 22.7688C60.7429 22.7688 61.4631 22.6342 62.1056 22.4954L62.3004 22.4573L61.7375 18.7229Z" fill="black"/>
<path d="M69.493 19.4145C68.4222 19.4145 67.7602 18.7579 67.7602 17.7058C67.7602 15.8289 69.5689 14.6033 72.9973 14.1431V17.8173C71.9327 18.8562 70.7247 19.4145 69.493 19.4145ZM70.9964 5.19043C68.2904 5.19043 66.2488 5.8488 64.6232 6.48683L64.4693 6.54612L65.0276 10.1238L65.271 10.0168C67.2204 9.15485 68.8699 8.7531 70.4778 8.7531C72.191 8.7531 72.9973 9.46191 72.9973 10.9884V11.4255C66.5728 12.0875 63.4446 14.2785 63.4446 18.1288C63.4446 20.9729 65.2878 22.8091 68.1451 22.8091C70.1239 22.8091 71.7671 22.0861 73.2803 20.6145C73.3618 21.1074 73.583 22.4798 73.583 22.4798H77.3421V10.8725C77.3421 7.00008 75.3271 5.19043 70.9964 5.19043Z" fill="black"/>
<path d="M88.5001 18.7229L88.2789 18.7831C87.9806 18.8654 87.5975 18.907 87.0896 18.907C85.7958 18.907 85.1887 18.3256 85.1887 17.0682V9.17027H88.385L88.4443 5.53947H85.1887V0.17688H80.9023V5.53947H78.6785V9.17027H80.9023V17.7247C80.9023 21.1121 82.6827 22.7688 86.3321 22.7688C87.5054 22.7688 88.2594 22.6281 88.8699 22.4954L89.0612 22.4573L88.5001 18.7229Z" fill="black"/>
<path d="M94.1065 12.1506C94.3021 9.7206 95.3587 8.32509 97.0302 8.32509C99.2789 8.32509 99.8753 10.3533 99.9646 12.1506H94.1065ZM103.417 17.4176C101.47 18.7671 99.8788 19.3485 98.0798 19.3485C95.7445 19.3485 94.2941 17.7679 94.0446 15.0186H104.183L104.227 13.8594C104.227 8.1189 101.841 5.19868 97.1285 5.19072C95.0578 5.18453 93.3597 5.83405 92.0818 7.11452C90.5245 8.66225 89.7006 11.071 89.7006 14.0576C89.7006 19.4618 92.7561 22.8085 97.6523 22.8085C100.043 22.8085 102.213 22.1422 104.105 20.8404L104.211 20.7696L103.684 17.2273L103.417 17.4176Z" fill="black"/>
</g>
<defs>
<clipPath id="clip0_1_582">
<rect width="111" height="22.7008" fill="white" transform="translate(0 0.176697)"/>
</clipPath>
</defs>
</svg>
