<svg width="171" height="25" viewBox="0 0 171 25" fill="none" xmlns="http://www.w3.org/2000/svg">
<g clip-path="url(#clip0_199_454)">
<path fill-rule="evenodd" clip-rule="evenodd" d="M9.33916 9.26233C8.33666 9.1827 7.8093 9.15659 7.22973 9.15659C5.14509 9.15659 3.90502 10.7648 3.90502 13.087V18.9976H0.000732422V5.80578H3.90502V6.09556L3.71966 7.99484H3.82539C4.56422 6.5694 5.77688 5.67263 7.30805 5.67263C7.94114 5.67263 8.49591 5.72484 9.60415 5.83058L10.9761 5.98983V9.39286L9.33916 9.26233Z" fill="black"/>
<path fill-rule="evenodd" clip-rule="evenodd" d="M18.0635 10.8966H26.1645C25.7677 9.31322 24.2913 8.39034 22.1793 8.39034C20.0163 8.39034 18.5922 9.34063 18.0635 10.8966ZM17.9578 13.4825C18.4603 15.4092 20.3596 16.2276 22.4704 16.2276C24.0263 16.2276 25.7951 15.883 26.2167 14.643H30.1471C29.7529 17.969 25.953 19.2338 22.3907 19.2338C17.5897 19.2338 14.1057 16.6767 14.1057 12.5061C14.1057 8.25851 17.51 5.54078 22.2328 5.54078C26.6905 5.54078 30.1471 7.97002 30.1471 12.0845C30.1471 12.6118 30.0688 13.1392 29.963 13.4825H17.9578Z" fill="black"/>
<mask id="mask0_199_454" style="mask-type:alpha" maskUnits="userSpaceOnUse" x="34" y="0" width="16" height="19">
<path fill-rule="evenodd" clip-rule="evenodd" d="M34.4768 0H49.9125V18.9976H34.4768V0Z" fill="white"/>
</mask>
<g mask="url(#mask0_199_454)">
<path fill-rule="evenodd" clip-rule="evenodd" d="M38.4085 18.9977H34.4768V-0.000305176H38.4085V7.62551H38.5142C38.9346 6.9402 40.0963 5.54087 43.3688 5.54087C47.1151 5.54087 49.9125 7.04464 49.9125 11.4254V18.9977H45.9808V12.4279C45.9808 9.71014 44.9522 8.41785 42.5765 8.41785C40.2295 8.41785 38.4085 9.94641 38.4085 12.8247V18.9977Z" fill="black"/>
</g>
<path fill-rule="evenodd" clip-rule="evenodd" d="M60.7588 13.7201C59.2276 13.7201 58.4627 14.1691 58.4627 15.0933C58.4627 16.1467 59.5187 16.3321 60.7849 16.3321C62.7102 16.3321 65.2687 15.8308 65.4019 13.7201H60.7588ZM65.4541 17.3607C64.5051 18.495 62.6567 19.26 60.0982 19.26C57.0111 19.26 54.6106 18.0199 54.6106 15.2238C54.6106 12.6915 56.5099 10.9762 61.2587 10.9762C62.7899 10.9762 63.9503 11.1081 65.4019 11.2934V10.9762C65.4019 9.12917 63.3968 8.49608 61.7338 8.49608C60.2836 8.49608 58.6989 8.94512 58.4365 10.0272H54.4526C54.822 6.78216 58.4104 5.54078 61.6555 5.54078C65.2165 5.54078 69.1482 6.67643 69.1482 10.9762V14.8283C69.1482 16.5709 69.2787 18.1256 69.5698 18.7065V18.9976H65.9031C65.7974 18.5746 65.6655 18.0199 65.5598 17.3607H65.4541Z" fill="black"/>
<mask id="mask1_199_454" style="mask-type:alpha" maskUnits="userSpaceOnUse" x="74" y="0" width="17" height="20">
<path fill-rule="evenodd" clip-rule="evenodd" d="M74.1108 0H90.4159V19.2337H74.1108V0Z" fill="white"/>
</mask>
<g mask="url(#mask1_199_454)">
<path fill-rule="evenodd" clip-rule="evenodd" d="M82.4207 16.1741C84.8747 16.1741 86.4059 14.7761 86.4059 12.4003C86.4059 10.0011 84.8747 8.60178 82.4207 8.60178C80.0201 8.60178 78.4119 10.0011 78.4119 12.4003C78.4119 14.7761 80.0201 16.1741 82.4207 16.1741ZM74.5325 -0.000427246H78.4119V7.25597H78.5164C79.387 6.19995 80.9952 5.54075 83.1595 5.54075C87.6185 5.54075 90.4159 8.07312 90.4159 12.4003C90.4159 16.7015 87.6185 19.2338 83.213 19.2338C80.943 19.2338 79.2826 18.4428 78.3845 17.1505H78.2788C78.1731 17.9168 78.0425 18.5224 77.9094 18.9976H74.1108V18.7065C74.3745 18.1256 74.5325 16.5709 74.5325 14.8283V-0.000427246Z" fill="black"/>
</g>
<path fill-rule="evenodd" clip-rule="evenodd" d="M101.922 5.54134C105.984 5.54134 109.098 6.96547 109.39 10.0278H105.59C105.272 8.76031 103.53 8.3909 101.896 8.3909C100.313 8.3909 98.7823 8.65458 98.7823 9.57746C98.7823 10.58 99.7313 10.7118 102.925 10.9768C107.806 11.3984 109.39 12.8513 109.39 15.1447C109.39 18.3376 105.932 19.2605 102.317 19.2605C97.99 19.2605 94.771 17.9695 94.5073 14.6435H98.255C98.5186 16.2007 100.524 16.4122 102.265 16.4122C104.006 16.4122 105.616 16.1746 105.616 15.2243C105.616 14.2493 104.638 14.0378 101.949 13.7989C97.3047 13.4034 94.9825 12.4009 94.9825 9.68319C94.9825 6.67568 98.1753 5.54134 101.922 5.54134Z" fill="black"/>
<mask id="mask2_199_454" style="mask-type:alpha" maskUnits="userSpaceOnUse" x="114" y="0" width="16" height="19">
<path fill-rule="evenodd" clip-rule="evenodd" d="M114.481 0H129.917V18.9976H114.481V0Z" fill="white"/>
</mask>
<g mask="url(#mask2_199_454)">
<path fill-rule="evenodd" clip-rule="evenodd" d="M118.413 18.9977H114.481V-0.000305176H118.413V7.62551H118.519C118.94 6.9402 120.102 5.54087 123.373 5.54087C127.12 5.54087 129.917 7.04464 129.917 11.4254V18.9977H125.985V12.4279C125.985 9.71014 124.957 8.41785 122.581 8.41785C120.234 8.41785 118.413 9.94641 118.413 12.8247V18.9977Z" fill="black"/>
</g>
<path fill-rule="evenodd" clip-rule="evenodd" d="M138.071 12.4008C138.071 14.6969 139.656 16.2803 142.162 16.2803C144.695 16.2803 146.306 14.6969 146.306 12.4008C146.306 10.106 144.695 8.52259 142.162 8.52259C139.656 8.52259 138.071 10.106 138.071 12.4008ZM142.162 19.2604C137.414 19.2604 134.089 16.7541 134.089 12.4008C134.089 8.04875 137.414 5.54118 142.162 5.54118C146.91 5.54118 150.288 8.04875 150.288 12.4008C150.288 16.7541 146.91 19.2604 142.162 19.2604Z" fill="black"/>
<path fill-rule="evenodd" clip-rule="evenodd" d="M162.532 16.174C164.986 16.174 166.541 14.776 166.541 12.3755C166.541 10.0011 164.986 8.60173 162.532 8.60173C160.132 8.60173 158.547 10.0011 158.547 12.3755C158.547 14.776 160.132 16.174 162.532 16.174ZM158.417 7.62534H158.495C159.418 6.33305 161.081 5.5407 163.323 5.5407C167.729 5.5407 170.526 8.07307 170.526 12.3755C170.526 16.7014 167.729 19.2337 163.27 19.2337C161.107 19.2337 159.497 18.5745 158.653 17.5198H158.547V24.801H154.564V5.80569H158.547V6.09547L158.417 7.62534Z" fill="black"/>
</g>
<defs>
<clipPath id="clip0_199_454">
<rect width="171" height="24.8015" fill="white"/>
</clipPath>
</defs>
</svg>
