<svg width="98" height="42" viewBox="0 0 98 42" fill="none" xmlns="http://www.w3.org/2000/svg">
<path fill-rule="evenodd" clip-rule="evenodd" d="M89.0846 28.8049C86.8303 28.6963 85.2126 30.5679 85.1872 32.6499C85.1595 34.8069 86.855 36.6193 88.994 36.6088C91.1682 36.5984 92.8675 34.9791 92.8967 32.7331C92.9252 30.5746 91.261 28.7338 89.0846 28.8049ZM28.0896 25.225C29.6781 26.3461 30.8555 27.8081 31.4292 29.6699C31.7063 30.5694 31.9025 31.5295 31.9242 32.4665C31.9886 35.2375 31.9347 38.0101 31.9579 40.7812C31.9624 41.2987 31.7939 41.4769 31.2876 41.4582C30.5447 41.4312 29.8002 41.4694 29.0573 41.4477C28.3608 41.4268 27.9788 40.9699 27.999 40.2681C28.0065 40.0038 27.9721 39.7394 27.9511 39.3792C27.1714 39.9087 26.5356 40.4217 25.8293 40.8051C23.286 42.1862 20.7665 41.9944 18.3377 40.5145C16.4871 39.3866 15.3218 37.751 14.6934 35.6592C14.0141 33.3951 14.0493 31.1835 14.981 29.0453C15.6086 27.6036 16.6009 26.4068 17.8914 25.4137C19.4042 24.2491 21.0803 23.7264 22.9317 23.6574C24.822 23.587 26.5483 24.136 28.0896 25.225ZM12.5477 23.6882C12.7095 23.7563 12.8787 24.0229 12.8847 24.2027C12.9192 25.2549 12.9139 26.3094 12.9049 27.3632C12.8997 28.0073 12.4279 28.4357 11.7066 28.4462C10.7682 28.4589 9.82904 28.4424 8.88987 28.4484C7.61219 28.4566 6.7202 29.1809 6.07012 30.1545C4.41497 32.635 5.92783 35.594 8.29447 36.1857C9.27708 36.4313 10.3915 36.3048 11.4228 36.167C12.8218 35.9805 12.8982 35.9078 12.9027 37.1518V38.288C12.9177 38.288 12.9319 38.2895 12.9461 38.2902C12.9012 39.0841 12.8315 39.8787 12.8203 40.6741C12.8151 41.0313 12.6368 41.1324 12.353 41.226C9.89794 42.0319 7.51108 41.8626 5.19387 40.734C3.2691 39.7971 1.8244 38.3254 0.927169 36.4246C-0.0823992 34.2871 -0.297345 32.0193 0.429873 29.7179C1.53156 26.2338 3.94763 24.118 7.43993 23.2658C9.14526 22.8493 10.8963 22.9909 12.5477 23.6882ZM69.4475 16.1261C69.5598 16.1306 69.7441 16.3905 69.7568 16.5433C69.8002 17.0481 69.783 17.5574 69.783 18.0644C69.7845 22.9265 69.7957 27.7878 69.7808 32.6499C69.7755 34.5178 69.2513 36.2059 68.1675 37.7809C66.418 40.3221 64.0476 41.6604 60.9995 41.7136C58.1745 41.763 55.8108 40.6149 54.0718 38.416C51.8804 35.645 51.5329 32.5047 52.66 29.2093C52.9027 28.5001 53.3895 27.8597 53.8314 27.2359C54.2822 26.5978 54.7286 25.9065 55.3315 25.4339C57.6008 23.6567 60.1419 23.1579 62.9003 24.1443C63.3436 24.303 63.7406 24.5914 64.2963 24.8954V23.2448C64.2933 21.5851 64.3427 19.9232 64.2663 18.2666C64.2154 17.1657 65.2729 16.1074 66.3401 16.0909C67.3759 16.076 68.4125 16.0872 69.4475 16.1261ZM94.0591 25.2048C96.076 26.6053 97.2361 28.5667 97.8292 30.8989C97.9191 31.2517 97.9446 31.6209 98 31.9826V41.238C97.8307 41.3084 97.663 41.4357 97.493 41.4402C96.6706 41.4627 95.8483 41.4612 95.026 41.45C94.3781 41.4417 94.0119 41.0186 94.0171 40.361C94.0194 40.0427 93.9707 39.7237 93.9355 39.2945C93.6779 39.4615 93.5094 39.5289 93.3993 39.6495C92.2684 40.8838 90.7915 41.5061 89.1962 41.6627C86.0702 41.969 83.5949 40.6576 81.8274 38.1352C80.4441 36.1617 80.0539 33.8834 80.328 31.5071C80.6014 29.1419 81.7181 27.1864 83.529 25.6826C86.4559 23.2508 90.6948 22.8696 94.0591 25.2048ZM42.7681 23.6717C44.445 23.7863 45.9263 24.3644 47.258 25.4242C49.3213 27.0659 50.2088 29.2213 50.2342 31.7774C50.2657 34.8406 50.2507 37.9038 50.2657 40.9662C50.2672 41.3519 50.1129 41.4679 49.7362 41.459C48.7581 41.4365 47.7762 41.4028 46.8019 41.462C45.8133 41.5219 44.6973 40.4277 44.7071 39.314C44.731 36.6216 44.7048 33.9291 44.6876 31.236C44.6756 29.3479 42.7845 28.1893 41.1429 29.0992C40.3745 29.5254 39.9476 30.2301 39.9446 31.1558C39.9378 34.3755 39.9071 37.5952 39.9139 40.8149C39.9146 41.3436 39.7259 41.4777 39.2278 41.4672C37.8783 41.438 36.5272 41.456 35.1768 41.4522C34.4601 41.4522 34.38 41.3698 34.38 40.6411V35.7236H34.4339C34.4339 34.222 34.4324 32.7203 34.4339 31.218C34.4369 29.1809 35.2937 27.4561 36.6537 26.0466C38.2894 24.3517 40.3602 23.5069 42.7681 23.6717ZM72.8874 23.7915C74.3725 23.8222 75.8599 23.8012 77.3458 23.8035C78.3359 23.8035 78.3524 23.8364 78.3494 24.8235C78.3411 27.4561 78.3464 30.0886 78.3464 32.7204H78.3688C78.3688 35.4697 78.3658 38.2191 78.3741 40.9684C78.3748 41.3152 78.261 41.456 77.8992 41.4522C76.6485 41.4395 75.3955 41.4747 74.1448 41.4402C73.3322 41.4178 72.256 40.4015 72.2598 39.5215C72.2815 34.4908 72.2777 29.4602 72.265 24.4289C72.2642 23.9555 72.3848 23.7818 72.8866 23.7923L72.8874 23.7915ZM23.083 28.8094C20.9073 28.6671 19.2439 30.523 19.172 32.6537C19.1084 34.5238 20.7733 36.7377 23.2463 36.6081C25.1673 36.5085 26.8711 34.7837 26.8913 32.7526C26.9168 30.296 24.828 28.6596 23.0837 28.8101L23.083 28.8094ZM57.0121 32.5414C56.9747 34.7357 58.486 36.5699 60.9051 36.5961C62.9819 36.6193 64.6768 34.9357 64.7696 32.8844C64.8782 30.4968 63.0096 28.6851 60.9688 28.8079C58.6718 28.6806 57.0443 30.5649 57.0121 32.5414ZM78.8414 18.8403C78.8759 20.6437 77.2911 22.2891 75.5603 22.3723C73.3921 22.4771 71.7692 20.7284 71.7595 18.8687C71.7482 16.8211 73.3749 15.3263 75.1739 15.2664C77.1436 15.2012 78.926 16.8346 78.8414 18.8403ZM49.9436 0C49.5093 0.880751 49.14 1.80045 48.6255 2.63252C47.589 4.31014 46.4034 5.89789 45.4126 7.59947C44.5625 9.0584 44.2817 10.7128 44.6135 12.3792C45.143 15.0319 46.7854 16.6436 49.4606 17.1851C52.7095 17.8427 56.0288 15.4498 56.4617 12.1575C56.7762 9.76615 55.8625 7.74327 54.5908 5.82898C53.6494 4.40975 52.6451 3.03245 51.7284 1.59823C51.428 1.12715 51.3164 0.53624 51.1187 0H52.0587C52.7814 0.209703 53.5266 0.361737 54.2231 0.637346C57.7169 2.02063 60.0386 4.53931 60.9283 8.15893C61.7462 11.4865 61.0085 14.5601 58.844 17.3005C57.0241 19.6057 54.6365 20.8946 51.8018 21.2751C49.3011 21.6099 46.9052 21.0631 44.7573 19.6724C42.0483 17.9206 40.3587 15.4266 39.8996 12.2706C39.4323 9.05766 40.2464 6.1368 42.4707 3.63085C44.2045 1.67912 46.3203 0.533993 48.8667 0.103354C48.9161 0.0943665 48.958 0.035949 49.0037 0H49.9436Z" fill="black"/>
</svg>
