<svg width="112" height="39" viewBox="0 0 112 39" fill="none" xmlns="http://www.w3.org/2000/svg">
<g clip-path="url(#clip0_199_509)">
<path d="M9.66898 37.9997C6.92498 37.9997 4.61102 37.0731 2.76302 35.2198C0.913962 33.3464 0 31.0578 0 28.3349C0 25.611 0.932981 23.2844 2.8 21.355C4.68498 19.4447 6.98098 18.499 9.70702 18.499C12.432 18.499 14.728 19.4447 16.595 21.355C18.48 23.2654 19.413 25.573 19.413 28.2779C19.413 30.9828 18.48 33.2904 16.595 35.1627C14.709 37.054 12.432 37.9997 9.66898 37.9997ZM15.531 28.2578C15.531 26.5186 14.971 25.0996 13.851 23.9469C12.712 22.792 11.349 22.2056 9.72498 22.2056C8.10098 22.2056 6.72 22.792 5.6 23.9458C4.46098 25.0996 3.92 26.5556 3.92 28.2589C3.92 29.9611 4.48 31.3991 5.58098 32.5529C6.72 33.7057 8.10098 34.254 9.744 34.254C11.387 34.254 12.768 33.6877 13.907 32.5529C14.989 31.3991 15.549 29.9801 15.531 28.2589V28.2578ZM24.322 37.6785V30.2263C24.322 28.1638 25.573 26.7078 27.477 26.7078C29.213 26.7078 30.371 27.9377 30.371 30.1502V37.6785H33.917V29.1665C33.917 27.2942 33.395 25.8752 32.349 24.8735C31.323 23.8697 30.035 23.3594 28.541 23.3594C26.6 23.3594 24.957 24.3241 24.23 25.686V23.7377H20.757V37.6595H24.323V37.6785H24.322ZM49.112 30.4154C49.112 30.9067 49.056 31.4361 48.981 32.0035H38.696C39.2 33.9709 40.544 34.9725 42.709 34.9725C44.203 34.9725 45.957 34.3872 47.152 33.5736L48.571 36.1084C46.835 37.3763 44.837 38.0187 42.579 38.0187C40.152 38.0187 38.323 37.3002 37.035 35.9002C35.746 34.5002 35.112 32.7611 35.112 30.7366C35.112 28.6181 35.765 26.8779 37.109 25.4969C38.453 24.117 40.152 23.4355 42.28 23.4355C44.277 23.4355 45.939 24.0789 47.227 25.3268C48.459 26.5567 49.112 28.2399 49.112 30.4154ZM42.243 26.4045C40.451 26.4045 39.126 27.5013 38.696 29.3165H45.677C45.341 27.5013 44.053 26.4045 42.243 26.4045ZM56.056 37.9986C53.163 37.9986 50.53 36.7508 49 34.4802L51.147 31.8513C52.36 33.5535 54.171 34.4812 56.093 34.4812C57.624 34.4812 58.763 33.6676 58.763 32.4568C58.763 31.7002 58.203 31.0198 57.083 30.4894C56.84 30.3573 56.224 30.1301 55.234 29.7519C54.4846 29.4597 53.7554 29.1184 53.051 28.7301C51.091 27.5763 50.101 26.0252 50.101 24.0388C50.101 22.4507 50.68 21.1458 51.856 20.1051C53.032 19.0654 54.582 18.517 56.448 18.517C58.875 18.517 60.909 19.3675 62.571 21.0697L60.574 23.8317C59.547 22.7159 57.885 22.0725 56.485 22.0725C54.992 22.0725 54.096 22.7909 54.096 23.8888C54.096 24.6263 54.6 25.2507 55.608 25.7611L57.456 26.5746C58.483 27.0089 59.248 27.3312 59.715 27.5763C61.824 28.6171 62.888 30.1861 62.888 32.2676C62.888 33.9508 62.254 35.3318 61.003 36.4095C59.733 37.4503 58.091 37.9986 56.056 37.9986ZM63.485 30.7165C63.485 28.6741 64.157 26.9339 65.557 25.5339C66.939 24.0969 68.712 23.3964 70.84 23.3964C72.987 23.3964 74.741 24.1149 76.123 25.5339C77.504 26.9339 78.194 28.6741 78.194 30.7165C78.194 32.778 77.523 34.5182 76.123 35.9182C74.76 37.3372 72.987 38.0367 70.84 38.0367C68.693 38.0367 66.939 37.3182 65.557 35.9182C64.176 34.5182 63.485 32.778 63.485 30.7165ZM68.134 33.5535C68.861 34.31 69.776 34.7073 70.859 34.7073C71.941 34.7073 72.819 34.3291 73.547 33.5535C74.2675 32.7861 74.6622 31.7691 74.648 30.7165C74.648 29.6198 74.275 28.6741 73.547 27.9165C72.818 27.1611 71.941 26.7638 70.859 26.7638C69.776 26.7638 68.862 27.142 68.133 27.9176C67.405 28.6741 67.051 29.6187 67.051 30.7176C67.051 31.8133 67.3881 32.76 68.134 33.5535ZM82.917 21.5811C83.757 20.7295 83.757 19.2545 82.917 18.4409C82.077 17.5893 80.621 17.5893 79.8 18.4409C78.96 19.2545 78.96 20.7295 79.8 21.5811C80.621 22.4127 82.096 22.4127 82.917 21.5811ZM83.123 23.7746H79.576V37.6965H83.123V23.7757V23.7746ZM88.667 18.2697V37.6785H85.12V18.2719H88.667V18.2697ZM95.181 1.04181L96.003 0C97.011 0.491321 102.312 1.58913 105.541 3.02611C107.147 3.7446 108.771 4.70928 110.003 6.2234C111.235 7.73645 112 9.79789 112 12.2376C112 14.8675 110.843 16.7387 109.685 17.8175C109.125 18.3289 108.565 18.6882 108.117 18.9333C108.621 21.4491 108.64 23.8888 108.64 25.9132H105.28C105.28 21.2409 105.541 16.3615 100.389 12.2376L102.443 9.51366C104.739 11.349 106.213 13.4104 107.109 15.5289C107.203 15.4539 107.259 15.4159 107.371 15.3208C107.987 14.7343 108.64 13.9208 108.64 12.2376C108.64 10.4783 108.136 9.34355 107.371 8.39789C106.605 7.45223 105.541 6.69676 104.216 6.10928C101.995 5.12664 99.568 4.69132 97.496 3.93479C96.862 4.99351 95.182 7.98159 95.182 12.9751C95.182 16.2294 96.059 17.6094 96.805 18.2898C97.355 18.7838 98.0629 19.0659 98.802 19.0854C99.4 19.0854 100.595 18.442 102.107 17.7985L103.376 20.9387C102.219 21.43 100.819 22.4898 98.803 22.4898C97.888 22.4898 96.115 22.2257 94.547 20.7876C93.856 20.1632 93.371 19.6148 92.773 18.2528C92.176 16.8909 91.822 15.1506 91.822 12.9762C91.822 8.24679 92.942 4.27502 95.182 1.04075L95.181 1.04181Z" fill="black"/>
</g>
<defs>
<clipPath id="clip0_199_509">
<rect width="112" height="38.0377" fill="white"/>
</clipPath>
</defs>
</svg>
