<svg width="17" height="16" viewBox="0 0 17 16" fill="none" xmlns="http://www.w3.org/2000/svg">
<path fill-rule="evenodd" clip-rule="evenodd" d="M10.407 0C10.418 0.002 10.429 0.006 10.439 0.007C10.777 0.015 11.115 0.022 11.453 0.033C11.805 0.043 12.156 0.061 12.506 0.107C12.923 0.163 13.332 0.257 13.725 0.41C14.811 0.835 15.586 1.583 16.045 2.655C16.295 3.241 16.413 3.859 16.445 4.492C16.474 5.045 16.482 5.598 16.5 6.152C16.5 6.165 16.505 6.178 16.507 6.192V9.809C16.505 9.819 16.501 9.829 16.5 9.84C16.492 10.2 16.489 10.56 16.473 10.92C16.459 11.255 16.439 11.59 16.406 11.923C16.3601 12.3873 16.2479 12.8425 16.073 13.275C15.8808 13.7693 15.5927 14.2207 15.2253 14.6031C14.8578 14.9855 14.4182 15.2913 13.932 15.503C13.323 15.778 12.677 15.904 12.015 15.938C11.463 15.967 10.911 15.975 10.359 15.993C10.347 15.993 10.336 15.998 10.324 16H6.68996C6.67996 15.998 6.66996 15.994 6.65896 15.993L5.39096 15.959C4.98857 15.9506 4.5874 15.9114 4.19096 15.842C3.69967 15.7577 3.22522 15.5946 2.78596 15.359C1.94998 14.9108 1.29933 14.1815 0.948958 13.3C0.723502 12.7314 0.594726 12.1291 0.567958 11.518C0.540958 11.043 0.531958 10.568 0.514958 10.092L0.506958 9.901V6.099C0.508958 6.089 0.512958 6.079 0.513958 6.068C0.519958 5.805 0.522958 5.542 0.530958 5.279C0.543958 4.875 0.556958 4.469 0.605958 4.067C0.657958 3.642 0.748958 3.227 0.900958 2.825C1.29696 1.775 2.00096 1.005 3.01696 0.525C3.64296 0.23 4.31096 0.1 4.99696 0.06C5.47196 0.034 5.94696 0.025 6.41996 0.008L6.60696 0H10.409H10.407ZM8.51096 3.892C7.69984 3.89144 6.90671 4.13101 6.23154 4.58051C5.55637 5.03001 5.02938 5.66933 4.71699 6.41788C4.4046 7.16643 4.32081 7.9907 4.47616 8.7868C4.63151 9.5829 5.01906 10.3152 5.58996 10.8914C6.16086 11.4676 6.88955 11.8618 7.68418 12.0245C8.47882 12.1872 9.30383 12.111 10.0552 11.8055C10.8066 11.5001 11.4508 10.979 11.9065 10.308C12.3622 9.63698 12.609 8.84609 12.616 8.035C12.6208 7.49277 12.5183 6.95494 12.3142 6.45257C12.1101 5.95019 11.8085 5.49322 11.4269 5.10803C11.0452 4.72283 10.591 4.41706 10.0905 4.20834C9.59007 3.99963 9.05321 3.89211 8.51096 3.892ZM8.55096 5.334C9.25803 5.34196 9.93297 5.63047 10.4273 6.13607C10.9217 6.64166 11.1949 7.32293 11.187 8.03C11.179 8.73707 10.8905 9.41201 10.3849 9.90636C9.87929 10.4007 9.19803 10.674 8.49096 10.666C7.79561 10.6408 7.13764 10.3449 6.65745 9.84131C6.17726 9.33777 5.91287 8.6665 5.9207 7.97074C5.92853 7.27498 6.20796 6.60983 6.69936 6.11722C7.19076 5.62461 7.85522 5.34354 8.55096 5.334ZM12.778 2.767C12.5306 2.77762 12.2969 2.88319 12.1254 3.06173C11.9539 3.24027 11.8579 3.47805 11.8572 3.72561C11.8566 3.97317 11.9514 4.21145 12.122 4.39088C12.2925 4.57031 12.5257 4.67709 12.773 4.689C13.0203 4.67838 13.254 4.57281 13.4255 4.39427C13.597 4.21573 13.693 3.97795 13.6937 3.73039C13.6943 3.48283 13.5995 3.24455 13.4289 3.06512C13.2584 2.88569 13.0252 2.77891 12.778 2.767Z" fill="white"/>
</svg>
