<svg width="126" height="48" viewBox="0 0 126 48" fill="none" xmlns="http://www.w3.org/2000/svg">
<path fill-rule="evenodd" clip-rule="evenodd" d="M104.23 28.8747L104.231 29.005C107.038 29.005 109.845 29.0026 112.652 29.0067C113.333 29.0075 113.508 29.3406 113.247 29.9719C112.886 30.8458 112.343 31.5072 111.404 31.7679C111.184 31.829 110.95 31.8672 110.722 31.8697C107.417 31.9104 104.109 31.886 100.806 31.9967C97.6817 32.1018 94.5605 32.3437 91.4385 32.5335C89.4804 32.6516 87.5207 32.7518 85.5674 32.9171C82.9463 33.1395 80.3277 33.3977 77.7122 33.6779C75.9806 33.8636 74.2554 34.1072 72.5295 34.3401C70.7432 34.582 68.9562 34.8207 67.1756 35.1017C65.6753 35.3379 64.1839 35.636 62.6877 35.8999C62.0312 36.0156 61.3698 36.1068 60.7141 36.2241C59.34 36.4693 57.9651 36.7087 56.5967 36.9816C55.1387 37.2716 53.6848 37.5827 52.235 37.9101C50.6206 38.2734 49.0127 38.6684 47.4 39.0415C46.4926 39.2516 45.5755 39.4186 44.6746 39.6499C43.3893 39.9806 42.1154 40.3553 40.8358 40.7039C40.0734 40.9116 39.3029 41.09 38.5454 41.3107C37.3334 41.6626 36.1295 42.0422 34.9208 42.4046C34.0028 42.6808 33.0767 42.93 32.1645 43.2224C31.051 43.5784 29.949 43.9669 28.842 44.3407C27.7612 44.7048 26.6754 45.0551 25.6003 45.4363C24.6839 45.7613 23.7774 46.1139 22.8716 46.4666C21.9854 46.812 21.1066 47.1753 20.222 47.5255C19.9206 47.6444 19.5867 47.7047 19.3146 47.8709C18.9082 48.1193 18.5881 47.9784 18.3152 47.7096C17.5251 46.9342 16.9126 46.0374 16.6267 44.9516C16.5176 44.5346 16.4125 44.1086 16.3742 43.681C16.3091 42.93 16.6422 42.3892 17.3533 42.1008C18.9636 41.4443 20.5657 40.7569 22.2078 40.1908C23.5355 39.7347 24.9161 39.4333 26.2747 39.0708C27.929 38.6285 29.5816 38.1781 31.2432 37.7595C32.3836 37.4727 33.5361 37.2284 34.6854 36.9751C36.1075 36.6615 37.5297 36.3512 38.9551 36.0547C39.8511 35.8673 40.7519 35.702 41.6528 35.5366C43.1026 35.2703 44.5524 35.0072 46.0039 34.7531C47.47 34.4973 48.9386 34.2497 50.4072 34.0053C52.305 33.6885 54.2012 33.3643 56.1015 33.0703C57.8511 32.799 59.6039 32.5547 61.3584 32.3152C63.6985 31.9943 66.0378 31.6693 68.382 31.3842C70.6512 31.1081 72.9261 30.8735 75.1994 30.6316C77.8124 30.3539 80.427 30.0867 83.0408 29.8187C83.3039 29.791 83.5702 29.7861 83.8342 29.7699C85.8232 29.646 87.8122 29.5157 89.8021 29.4009C91.5566 29.2999 93.3127 29.1924 95.0688 29.1321C98.1216 29.0278 101.176 28.9586 104.23 28.8747ZM26.7935 3.35426C26.8668 3.37544 26.9377 3.41128 27.0077 3.44304C28.2132 3.98714 28.0015 3.93501 27.6129 4.90103C27.3767 5.48667 27.2317 6.10896 27.055 6.7174C26.7202 7.8732 26.392 9.03063 26.0613 10.1872C25.6353 11.6721 25.2288 13.1635 24.7792 14.641C24.3606 16.0143 23.8971 17.3729 23.4516 18.738C23.0256 20.0453 22.6208 21.36 22.163 22.6559C21.6702 24.0544 21.1302 25.4366 20.6024 26.8229C20.2562 27.7311 19.9076 28.6393 19.5378 29.5377C19.212 30.3302 18.8618 31.113 18.5091 31.8941C18.1947 32.5889 17.8941 33.2926 17.5325 33.963C16.9941 34.9624 16.4508 35.9643 15.8301 36.9132C15.0677 38.0763 14.272 39.2182 13.2449 40.1851C12.4988 40.8856 11.6908 41.4956 10.6987 41.7033C10.0283 41.8434 9.29364 41.8157 8.60944 41.7147C6.74746 41.4411 5.20965 40.537 3.95041 39.1368C2.97136 38.0478 2.26924 36.7942 1.68849 35.4633C0.813702 33.4596 0.399928 31.3345 0.0488714 29.1932C0.0407262 29.1476 0.0162903 29.1052 0 29.062V28.219C0.565275 27.499 1.38061 27.2734 2.21956 27.0909C2.55595 27.0184 2.75958 27.1846 2.86954 27.4688C3.28006 28.531 3.69221 29.5923 4.07747 30.6642C4.65415 32.2712 5.28784 33.8465 6.16508 35.3224C6.61469 36.0775 7.193 36.6794 7.8943 37.1828C8.5174 37.6308 9.45573 37.5933 10.0674 37.1543C11.3666 36.2216 12.2235 34.9241 13.0021 33.5785C13.846 32.1205 14.654 30.6365 15.3968 29.1248C16.0533 27.7889 16.608 26.4035 17.1904 25.0326C17.8534 23.4728 18.5246 21.9163 19.1428 20.3394C19.6429 19.0614 20.0721 17.7557 20.5299 16.4606C20.9811 15.1819 21.4519 13.908 21.869 12.6169C22.255 11.4253 22.5841 10.2149 22.9319 9.01108C23.0142 8.72763 23.0728 8.43685 23.1429 8.14932L23.0044 8.05728L20.9119 9.42893C20.5641 9.65862 20.2163 9.88913 19.871 10.1229C18.8023 10.8437 17.7565 11.5996 16.6854 12.3164C15.8814 12.854 15.0482 13.3476 14.2337 13.8705C13.288 14.4789 12.6405 14.0823 12.2503 13.28C12.1159 13.0047 11.9872 12.7245 11.8887 12.4353C11.6199 11.6534 11.9612 11.0962 12.5843 10.6613C13.5112 10.0146 14.4267 9.34992 15.3764 8.7374C16.4712 8.0304 17.5854 7.35273 18.7135 6.69867C19.5508 6.21403 20.4224 5.78885 21.2793 5.33924C22.5548 4.67134 23.8254 3.99203 25.1099 3.34286C25.6573 3.06592 26.234 3.19625 26.7935 3.35426ZM48.199 2.81098C49.4615 3.12538 49.2481 3.08466 48.8531 4.13457C48.6478 4.67867 48.419 5.2138 48.1852 5.78804L56.5144 5.15271L56.591 5.35064C56.2489 5.62839 55.9052 5.90614 55.5647 6.18552C55.1013 6.5659 54.6182 6.92429 54.1841 7.33562C53.7817 7.71681 53.3199 7.76976 52.797 7.83981C51.2005 8.05321 49.622 8.41567 48.0231 8.59893C47.1825 8.69505 46.8649 9.09823 46.6352 9.83863C46.2393 11.1142 45.7392 12.3587 45.279 13.6147C44.9255 14.5807 44.5459 15.5378 44.2169 16.5128C43.9114 17.4193 43.641 18.3389 43.3844 19.2601C43.0904 20.319 42.8037 21.3795 42.5683 22.4514C42.499 22.7642 42.6163 23.1177 42.6473 23.4516C42.9055 23.2993 43.202 23.1877 43.4137 22.9866C44.2885 22.1533 44.607 21.1181 44.6021 19.9101C44.5932 17.8266 45.3539 15.941 46.381 14.1784C46.9406 13.2172 47.6883 12.3946 48.6804 11.8016C50.1417 10.9276 52.2439 11.8391 52.5192 13.517C52.775 15.0809 52.6544 16.5934 51.7577 17.9471C50.6906 19.5574 49.4583 21.0097 47.6541 21.8552C47.1939 22.0719 46.9211 22.9304 47.1898 23.3637C47.2517 23.463 47.4717 23.5689 47.5572 23.5323C48.0296 23.3278 48.5835 23.1763 48.9231 22.8269C49.7947 21.9342 50.5685 20.947 51.3797 19.9965C51.5972 19.7415 51.8016 19.4744 52.0273 19.2276C52.2985 18.9311 52.7066 19.0256 52.8678 19.3978C53.2042 20.1716 52.8442 20.8313 52.4899 21.461C51.8815 22.5426 51.0808 23.481 50.0977 24.2385C49.1471 24.9699 48.1119 25.5482 46.8445 25.4326C46.1823 25.3723 45.6577 25.0522 45.2977 24.4804C45.2415 24.3916 45.1755 24.3093 45.1307 24.2482C44.5981 24.7663 44.1346 25.2648 43.619 25.7005C43.2981 25.9709 42.9226 26.2316 42.5276 26.3473C41.6071 26.616 40.769 26.1208 40.2656 25.2444C39.7101 24.2751 39.6368 23.2521 39.7224 22.1867C39.7574 21.7583 39.7997 21.3306 39.8527 20.745C39.2222 21.452 38.6765 22.0531 38.1471 22.6673C38.0762 22.7487 38.0575 22.8986 38.0599 23.0159C38.0868 24.1228 38.121 25.2297 38.1577 26.3359C38.1919 27.3296 38.2774 28.3249 38.2554 29.317C38.2383 30.094 38.0322 30.8352 37.4718 31.4453C36.6085 32.3877 35.4942 32.597 34.3058 32.5612C32.8267 32.518 32.0398 31.5235 31.8297 30.1649C31.6179 28.7916 32.1742 27.6643 32.8641 26.5631C33.3365 25.8113 33.8057 25.0571 34.2855 24.3102C34.4581 24.0414 34.6585 23.7889 34.8491 23.5315C35.6693 22.4229 35.7043 22.2348 35.328 20.7483C34.9525 21.373 34.5982 21.9391 34.2651 22.5174C33.475 23.8882 32.6996 25.2688 31.9063 26.6389C31.5177 27.31 31.1268 27.9828 30.6926 28.6238C30.0557 29.5638 28.5276 29.576 27.9558 28.127C27.8996 27.9844 27.8377 27.8435 27.7742 27.7034C27.4948 27.0885 27.4435 27.0868 27.0363 27.6383C26.5386 28.3127 26.0882 29.0148 25.3844 29.5279C24.3622 30.2708 23.3204 29.7666 22.9441 28.7835C22.3691 27.2799 22.3593 25.7339 22.8138 24.1774C23.1315 23.0933 23.3514 21.9806 23.678 20.899C23.994 19.8523 24.3834 18.8276 24.7524 17.7981C25.0171 17.0593 25.2899 16.3222 25.5832 15.5956C25.7216 15.2535 25.9016 14.9237 26.0987 14.6101C26.2519 14.3657 26.4816 14.193 26.8 14.3225C27.4508 14.5848 28.1098 14.8324 28.7353 15.1452C28.864 15.2087 28.9601 15.5663 28.9039 15.7317C28.5301 16.8386 28.1025 17.9268 27.7099 19.0264C27.2945 20.1895 26.8921 21.3575 26.4962 22.5272C26.2535 23.2448 26.0197 23.9664 25.808 24.6938C25.6467 25.2444 25.5123 25.804 25.3958 26.366C25.3282 26.6885 25.5115 26.8083 25.8275 26.6755C26.4938 26.3937 26.7015 25.7453 26.9849 25.1727C27.8605 23.4068 28.3851 21.5115 29.0204 19.6544C29.5824 18.0107 30.2634 16.4061 30.9223 14.7966C31.2416 14.0171 31.5316 13.8794 32.3493 14.0668C33.023 14.2207 33.6363 14.527 34.0541 15.098C34.1641 15.2486 34.1942 15.5378 34.1323 15.7203C33.7715 16.784 33.3789 17.838 32.9847 18.8904C32.645 19.8002 32.2769 20.7002 31.9454 21.6125C31.6945 22.3048 31.4811 23.0094 31.2498 23.709L31.3817 23.7783C31.7784 23.2586 32.1946 22.752 32.5685 22.216C33.3317 21.1205 34.0867 20.0185 34.8182 18.9018C35.267 18.2159 35.5748 17.4894 35.7157 16.6455C35.8884 15.6062 36.2892 14.6036 36.6076 13.5903C36.641 13.4828 36.7762 13.3378 36.8732 13.3321C37.6796 13.2775 38.4501 13.3924 39.1212 13.8982C39.5806 14.2435 39.6279 14.7265 39.4625 15.1941C39.2011 15.9328 38.8981 16.6643 38.5356 17.3574C38.1218 18.1475 38.1243 18.9734 38.1846 19.8556L38.4981 19.5102C38.5503 19.4524 38.6008 19.3929 38.6488 19.3326C39.5415 18.22 40.5059 17.1554 41.1021 15.8384C41.4117 15.1525 41.6682 14.4415 41.9387 13.7385C42.3589 12.6446 42.7695 11.5467 43.1865 10.4511C43.2622 10.2524 43.351 10.0585 43.4691 9.77998C43.0521 9.88343 42.7116 9.95103 42.3826 10.0528C40.602 10.6026 38.8223 11.1565 37.045 11.7185C36.2224 11.9792 35.4184 12.3131 34.5836 12.5184C33.6583 12.7448 33.0018 12.7228 32.0903 11.5687C31.8427 11.2559 31.6098 10.9301 31.3939 10.5945C31.0917 10.1221 31.2237 9.66432 31.7572 9.47861C32.9928 9.05018 34.2252 8.60056 35.4885 8.26906C37.0288 7.86424 38.5951 7.55635 40.1557 7.23462C41.6585 6.9251 43.1637 6.6278 44.6754 6.37286C45.1519 6.29304 45.1193 5.89148 45.2643 5.63084C45.674 4.89451 45.9982 4.11176 46.3786 3.35833C46.6629 2.79632 47.3332 2.59513 48.199 2.81098ZM67.4925 3.14004C68.7175 3.17914 69.9499 3.26467 71.157 3.46341C72.1589 3.62794 73.1273 3.98714 73.9182 4.69496C74.477 5.19588 74.8582 5.81573 74.9673 6.54228C75.1946 8.05484 74.9885 9.52993 74.569 11.0058C74.099 12.6626 73.4173 14.2232 72.5808 15.708C71.7321 17.2125 70.8255 18.6957 69.8171 20.0958C68.4398 22.0091 66.9859 23.8719 65.4815 25.6875C64.0699 27.3898 62.458 28.9024 60.6945 30.2512C59.6357 31.0617 58.5173 31.7931 57.2589 32.1914C56.5161 32.4276 55.6616 32.3804 54.861 32.3462C53.6286 32.2949 52.507 31.9023 51.6648 30.9289C51.2315 30.428 51.146 29.8212 51.1598 29.1883C51.1859 27.8883 51.7226 26.7504 52.3571 25.6663C53.2515 24.1399 54.426 22.8399 55.7724 21.6964C55.9565 21.54 56.165 21.4137 56.3621 21.2736L56.4981 21.3714C56.2864 21.8031 56.1047 22.2543 55.8547 22.6632C55.1069 23.889 54.483 25.1711 54.0709 26.546C53.9283 27.0192 53.8607 27.5234 53.82 28.0178C53.7646 28.6963 54.4798 29.2363 55.2177 29.1386C55.9964 29.0343 56.604 28.5676 57.2597 28.2035C57.3257 28.1669 57.3469 27.8574 57.2923 27.8215C56.1715 27.0868 56.3792 26.0092 56.5788 24.9707C56.8125 23.753 57.0927 22.5426 57.4112 21.3445C57.8266 19.7782 58.3007 18.2265 58.7487 16.6675L59.2797 14.7933C59.3693 14.4806 59.4605 14.1694 59.5542 13.8583C59.8931 12.7342 60.2506 11.6167 60.6066 10.4992C60.9055 9.55925 61.2093 8.62093 61.5205 7.68505C61.6614 7.26313 61.8055 6.84121 61.988 6.43639C62.045 6.30933 62.2405 6.14398 62.3529 6.15783C62.9516 6.22869 63.5649 6.28652 64.1318 6.47223C64.7101 6.66201 64.759 6.96583 64.5562 7.62559C64.2971 8.46698 64.0788 9.32141 63.8304 10.1661C63.5046 11.2754 63.165 12.3807 62.8326 13.4877C62.6282 14.1702 62.4278 14.8544 62.2218 15.5362C61.8373 16.8085 61.4414 18.0767 61.066 19.3514C60.7173 20.5365 60.3883 21.7281 60.0519 22.9173C59.8287 23.7041 59.5819 24.4853 59.397 25.2811C59.3229 25.5987 59.3848 25.9481 59.4842 26.3513C59.9883 25.8398 60.5316 25.3617 60.9886 24.8119C62.4099 23.1063 63.8353 21.4007 65.1882 19.6413C66.2438 18.2681 67.2604 16.8557 68.1726 15.3863C69.1337 13.8363 69.9971 12.2211 70.8068 10.5864C71.1855 9.82071 71.4787 8.95488 71.5594 8.11023C71.7329 6.29955 70.9485 5.29444 69.1175 5.12583C67.3304 4.9613 65.5507 5.19588 63.7799 5.50866C62.5386 5.72858 61.3266 6.02425 60.214 6.59522C58.699 7.37146 57.3843 8.37901 56.951 10.1669C56.8549 10.5644 57.052 10.8633 57.3045 11.1207C57.5285 11.3496 57.7924 11.5402 58.1655 11.8554C57.7826 12.0134 57.5008 12.2138 57.2043 12.2374C56.1642 12.3188 55.1778 12.1315 54.5229 11.2217C53.9357 10.4047 53.965 9.50305 54.3877 8.61685C54.997 7.34051 56.0966 6.55938 57.263 5.86705C58.8203 4.94094 60.495 4.31132 62.2478 3.83727C63.9746 3.36974 65.712 3.08384 67.4925 3.14004ZM35.4836 26.8791C35.4079 26.8857 35.3606 26.8767 35.3492 26.893C34.8825 27.5698 34.5518 28.3062 34.4288 29.1231C34.4142 29.2209 34.5103 29.3365 34.5551 29.444C34.6691 29.3789 34.841 29.3414 34.8874 29.2445C35.2458 28.5008 35.4388 27.7132 35.4836 26.8791ZM90.1035 0.211856C90.242 0.273759 90.3715 0.357655 90.5026 0.435034C90.9563 0.703824 91.0328 0.938404 90.8414 1.41245C90.4554 2.37114 90.0896 3.33879 89.6848 4.28933C89.1749 5.48748 88.6357 6.67342 88.1063 7.86343C87.4978 9.23019 86.8927 10.5978 86.2753 11.9604C86.1058 12.3351 85.903 12.696 85.7703 13.0926C86.3746 12.4964 86.9497 11.8651 87.594 11.3153C88.1845 10.8112 88.8125 10.3379 89.6571 10.2972C90.7079 10.2475 91.3627 10.8193 91.5639 11.8049C91.8417 13.161 91.8286 14.5205 91.4222 15.8563C91.0149 17.1978 90.6451 18.5548 90.1605 19.8678C89.6286 21.3111 88.9249 22.6738 87.7007 23.6846C87.0059 24.2572 86.1987 24.2735 85.4086 24.0405C84.533 23.7832 84.0516 23.1617 83.87 22.2193C83.6077 20.859 84.0329 19.8311 85.0975 19.0166C85.5324 18.6843 85.8102 18.7951 85.8761 19.3261C85.9087 19.5892 85.8859 19.8629 85.9478 20.1162C85.9877 20.2767 86.1384 20.4094 86.2394 20.5552C86.373 20.4583 86.5473 20.3899 86.6328 20.262C87.4612 19.0296 88.02 17.6653 88.5062 16.2733C88.8516 15.2837 89.1367 14.2737 89.4421 13.271C89.4779 13.1537 89.495 13.0218 89.4828 12.9004C89.4649 12.6968 89.416 12.4948 89.3802 12.292C89.1603 12.3612 88.8711 12.3653 88.7302 12.5119L88.2293 13.0315C87.8122 13.4673 87.4066 13.9145 87.0759 14.4081C86.1832 15.7414 85.3394 17.1123 84.5583 18.5132C83.9083 19.678 83.3601 20.8998 82.7997 22.1118C82.425 22.923 82.4486 22.9466 81.5584 22.7797C81.1967 22.7113 80.8351 22.6086 80.493 22.4742C79.9139 22.2453 79.7746 21.878 79.966 21.2883C80.0418 21.0553 80.0703 20.8077 80.1199 20.5666L80.0442 20.5178C79.6581 21.0048 79.2623 21.4838 78.8876 21.979C78.2441 22.8261 77.4834 23.5543 76.5662 24.0821C75.7664 24.5415 74.3263 24.1538 73.6095 23.336C72.8846 22.5076 72.5262 21.5538 72.7005 20.4322C72.8227 19.6503 72.8927 18.8602 73.0288 18.0807C73.2992 16.5291 73.8734 15.0857 74.6065 13.6954C75.2385 12.498 76.0034 11.4163 77.0574 10.5562C77.8963 9.87202 78.833 9.42567 79.9424 9.51527C81.3352 9.62767 81.8687 10.1351 81.8524 11.6167C81.8361 13.1154 81.2717 14.4113 80.5256 15.6526C79.6092 17.1782 78.5251 18.5694 77.1372 19.7008C76.8407 19.9435 76.541 20.2034 76.1989 20.3622C75.6613 20.6139 75.6409 21.1067 75.5815 21.5595C75.5538 21.7648 75.6792 22.1012 75.8397 22.19C75.996 22.2755 76.3202 22.1786 76.5092 22.0621C77.4752 21.4716 78.1904 20.6131 78.9039 19.7521C80.0084 18.4212 81.0583 17.0479 81.8752 15.524C82.3004 14.7298 82.5888 13.8607 82.9235 13.0201C83.4692 11.6485 84.0101 10.2752 84.5411 8.89868C84.9134 7.93347 85.2539 6.95687 85.6326 5.99574C86.0724 4.8823 86.5383 3.78025 86.9904 2.67251C87.1826 2.20009 87.374 1.72767 87.5549 1.25118C87.9857 0.116557 88.9721 -0.289886 90.1035 0.211856ZM118.068 1.31308C118.565 1.51101 119.003 1.8637 119.453 2.16833C119.762 2.37766 119.693 2.68473 119.572 2.96492C119.451 3.2443 119.295 3.50821 119.133 3.81772C119.689 3.9285 120.214 4.03031 120.737 4.13864C122.207 4.44408 123.68 4.73813 124.966 5.58441C125.434 5.8923 125.541 6.23602 125.336 6.75894C125.241 7.00248 125.197 7.27453 125.063 7.49282C124.696 8.09231 124.191 8.23159 123.311 7.97909C122.643 7.78686 121.997 7.5197 121.324 7.3511C120.228 7.07579 119.12 6.85343 118.016 6.60989C117.708 6.54147 117.556 6.6221 117.389 6.95035C116.693 8.32281 115.913 9.65292 115.197 11.0156C114.704 11.9531 114.253 12.9134 113.807 13.8746C113.255 15.0605 112.689 16.2415 112.202 17.4544L111.995 17.9691C111.688 18.7429 111.411 19.5322 111.385 20.3923C111.355 21.3909 111.852 21.4202 112.54 21.2231C114.041 20.7922 115.35 19.9362 116.724 19.2259C116.926 19.12 117.119 18.9946 117.329 18.9042C117.664 18.7592 118.121 18.6061 118.31 18.9368C118.469 19.2137 118.436 19.7122 118.297 20.029C117.963 20.7898 117.281 21.2647 116.639 21.7632C115.241 22.8465 113.671 23.503 111.928 23.7758C110.907 23.9363 109.733 23.3637 109.257 22.4286C108.824 21.5774 108.623 20.6595 108.513 19.7179C108.492 19.5371 108.471 19.3554 108.353 19.1461C108.166 19.4801 107.971 19.8108 107.796 20.1512C107.452 20.824 106.914 21.2476 106.189 21.4406C105.33 21.6695 104.395 20.9714 104.197 19.9484C104.086 19.3717 103.984 18.7942 103.862 18.1312C103.55 18.6012 103.286 19.019 103.002 19.4239C102.65 19.9256 102.341 20.4746 101.911 20.8981C101.084 21.711 100.168 21.6638 99.5111 20.8216C99.3548 20.622 99.2334 20.3565 99.2 20.1072C99.0632 19.0891 98.9369 18.0661 99.2896 17.0585C99.4924 16.4786 99.6773 15.8921 99.8647 15.3073C99.8809 15.2552 99.8565 15.1892 99.85 15.1224C98.8644 15.515 98.7479 16.4525 98.3619 17.2157C97.4903 18.9343 96.7043 20.7132 95.1576 21.9823C94.3838 22.6176 92.8443 22.721 92.0559 22.1623C91.331 21.6491 90.826 20.2188 91.0434 19.3277C91.2422 18.5149 91.3733 17.6808 91.6323 16.8883C91.9761 15.8375 92.3638 14.795 92.8297 13.7931C93.2491 12.8939 93.768 12.0346 94.3056 11.1989C94.5931 10.7517 95.0118 10.3884 95.3767 9.99176C95.8491 9.47861 96.429 9.64314 96.9829 9.77672C97.6866 9.94533 98.2877 10.3656 99.0192 10.5318C99.8011 10.7093 100.165 11.7723 99.951 12.6186C99.9217 12.7367 99.8883 12.854 99.8508 12.9933C100.618 12.6202 101.519 11.5801 101.994 10.6963C102.399 9.9437 102.906 9.24648 103.355 8.51667C103.614 8.09638 103.927 7.99212 104.329 8.30327C104.775 8.64862 105.214 9.00456 105.654 9.35806C106.045 9.67165 106.013 10.0634 105.801 10.4414C104.923 12.0118 104.004 13.5602 103.15 15.1419C102.729 15.9214 102.411 16.7571 102.058 17.5725C102.019 17.6621 102.052 17.7826 102.052 18.0213C102.251 17.8689 102.41 17.7932 102.504 17.6678C103.242 16.6871 103.936 15.6714 104.708 14.7184C105.476 13.7695 105.824 12.6186 106.371 11.5638C106.938 10.4715 107.506 9.38087 108.059 8.28127C108.233 7.9351 108.501 7.91067 108.742 8.11104C109.213 8.50201 109.677 8.91578 110.064 9.38576C110.196 9.54703 110.179 9.94778 110.077 10.1677C109.299 11.8423 108.468 13.4926 107.685 15.1648C107.234 16.1234 106.84 17.1074 106.421 18.0807L106.51 18.1801C106.667 18.0465 106.856 17.9374 106.977 17.7769C107.919 16.5258 108.869 15.2804 109.771 14.0024C110.496 12.9761 111.186 11.9254 111.834 10.8503C112.301 10.0748 112.669 9.23915 113.088 8.43522C113.359 7.91881 113.647 7.41137 113.919 6.89578C114.003 6.73776 114.062 6.5659 114.153 6.35005C113.11 6.35005 112.135 6.31503 111.164 6.3582C109.5 6.43151 107.837 6.53495 106.177 6.66283C104.766 6.77279 103.357 6.93162 101.949 7.0766C100.928 7.18168 100.853 6.99923 100.402 6.16435C100.089 5.58522 100.031 4.86519 99.8785 4.20299C99.8052 3.88451 100.007 3.73546 100.286 3.62875C101.279 3.24756 102.32 3.22149 103.365 3.19706C105.138 3.15633 106.913 3.03008 108.684 3.06511C110.94 3.10991 113.193 3.27362 115.446 3.40069C115.714 3.41616 115.879 3.37055 116.012 3.11968C116.249 2.6717 116.518 2.24 116.783 1.80668C117.182 1.15507 117.377 1.03696 118.068 1.31308ZM94.8749 16.0583C94.7935 16.2342 94.6574 16.4598 94.5825 16.705C94.3056 17.6181 94.0262 18.5328 93.8006 19.4605C93.755 19.6495 93.935 19.8938 94.0107 20.1129C94.2412 20.029 94.545 20.0087 94.6868 19.8474C95.0614 19.423 95.3872 18.9514 95.6911 18.4717C96.038 17.9235 96.3394 17.3468 96.6098 16.872L94.8749 16.0583ZM50.5318 15.3497C49.7051 15.7284 48.3546 18.0978 47.87 20.0176C49.1667 19.1925 50.9285 16.1031 50.5318 15.3497ZM79.8023 13.0055C78.1146 14.3616 77.5102 16.2676 76.6648 18.0196C77.7798 17.3151 79.9017 13.9902 79.8023 13.0055ZM96.6424 12.8051C96.4844 13.0682 96.4087 13.3801 96.2824 13.7133C96.4225 14.1075 96.5219 14.492 96.6954 14.8406C96.8281 15.1086 97.3209 15.1281 97.3722 14.8862C97.5074 14.246 97.6011 13.5911 97.6288 12.9395C97.6345 12.7945 97.3193 12.5648 97.1157 12.5086C96.9894 12.4744 96.7328 12.6552 96.6432 12.8051H96.6424Z" fill="black"/>
</svg>
