<svg width="180" height="45" viewBox="0 0 180 45" fill="none" xmlns="http://www.w3.org/2000/svg">
<g clip-path="url(#clip0_139_9486)">
<path d="M75.0648 15.4758H69.6207H61.2932V30.6744L65.2729 28.4345V24.1075H69.6207H72.8796L74.0784 25.2517V28.4345H78.0581V24.7225L75.7781 22.4825L78.0581 19.4748L75.0648 15.4758ZM72.9024 21.1631H69.6207H65.2729V18.3754H69.6207H72.9327L73.9685 19.7171L72.9024 21.1631Z" fill="black"/>
<path d="M55.6341 15.4758H49.9662H41.6804V28.4345H49.9662H55.6341L58.6313 24.4579L56.7533 21.9533L58.6313 19.4487L55.6341 15.4758ZM53.3085 25.5349H49.9662H45.6601V23.295H49.9662H53.3085L54.2684 24.469L53.3085 25.5349ZM53.3085 20.66H49.9662H45.6601V18.3754H49.9662H53.3085L54.2684 19.4637L53.3085 20.66Z" fill="black"/>
<path d="M88.804 15.476H83.3143L80.3171 18.4241V25.4904L83.3143 28.4385H88.804H94.294L97.2909 25.4904V18.4203L94.294 15.4723H88.804V15.476ZM93.3112 25.5352H88.804H84.3007V18.3756H88.8077H93.3147V25.5352H93.3112Z" fill="black"/>
<path d="M179.999 15.4758H175.291L171.061 19.6388L166.827 15.4758H162.088L168.693 21.9682L162.088 28.4345H166.827L171.057 24.2715L175.291 28.4345H179.999L173.398 21.9682L179.999 15.4758Z" fill="black"/>
<path d="M128.459 18.3754H132.37V30.6744L136.35 28.4345V18.3754H140.266L143.195 15.4758H125.53L128.459 18.3754Z" fill="black"/>
<path d="M157.864 18.3754L160.792 15.4758H145.029V28.4345H157.371L160.322 25.5349H149.009V23.295H156.186L158.869 20.66H149.009V18.3754H157.864Z" fill="black"/>
<path d="M119.29 30.6744L123.274 28.4531V15.4758H119.29V30.6744Z" fill="black"/>
<path d="M112.428 23.2056L102.901 15.4758H100.064V30.6744L104.044 28.4345V20.8762L113.392 28.4345H116.408V15.4758H112.428V23.2056Z" fill="black"/>
<path d="M23.7782 22.8058H23.122H22.4656C21.2933 22.8058 20.3335 23.7487 20.3335 24.9004V42.8124C21.2895 43.0099 22.219 42.8496 23.1182 42.3278C24.0818 41.7688 25.0075 40.8035 25.9028 39.4245C25.9028 34.5831 25.9028 29.7418 25.9028 24.9004C25.9067 23.7487 24.9468 22.8058 23.7782 22.8058Z" fill="black"/>
<path d="M17.2002 22.8058H17.1586H15.8914C14.7191 22.8058 13.7593 23.7487 13.7593 24.9004V43.7031C14.9998 44.8063 16.0697 45.2088 17.1586 44.8995C17.8604 44.7019 18.5699 44.21 19.3324 43.4199C19.3324 37.2443 19.3324 31.0723 19.3324 24.8967C19.3324 23.7487 18.3726 22.8058 17.2002 22.8058Z" fill="black"/>
<path d="M10.6255 22.8058H9.96912H9.31284C8.1405 22.8058 7.18066 23.7487 7.18066 24.9004V39.7077C8.04945 40.9675 8.98273 41.8209 9.96534 42.3577C10.8569 42.8422 11.7864 43.0658 12.75 43.0956C12.75 37.0318 12.75 30.968 12.75 24.9004C12.7576 23.7487 11.7977 22.8058 10.6255 22.8058Z" fill="black"/>
<path d="M30.3525 22.8058H29.6962H29.0398C27.8676 22.8058 26.9077 23.7487 26.9077 24.9004V38.8133C27.8599 38.8915 28.7894 38.7238 29.6923 38.2319C30.6559 37.7064 31.5892 36.8044 32.477 35.4254C32.477 31.9146 32.477 28.4075 32.477 24.9004C32.4808 23.7487 31.521 22.8058 30.3525 22.8058Z" fill="black"/>
<path d="M17.1622 14.7964H12.8562V17.0363H17.1622H20.5046L21.4682 15.9704L20.5046 14.7964H17.1622Z" fill="black"/>
<path d="M23.1234 4.18541L17.1595 0.559048L16.2414 0L9.97398 3.82017L4.7992 6.9732H9.97398H17.1595H22.8275L23.1234 7.36454L25.8246 10.9499L23.9467 13.4545L25.8246 15.959L23.1234 19.5443L22.8426 19.917H17.1595H9.97398H8.87757V12.1612H9.97398H17.1595H20.5019L21.4617 10.9648L20.5019 9.87651H17.1595H9.97398H0.0417322L0 19.7493V29.6258V34.9293C1.94244 34.9293 5.85768 34.0982 5.82353 27.822V23.8565C5.80077 22.7682 6.34708 22.0973 7.87979 22.1495H9.9702C12.3641 22.1495 14.7618 22.1458 17.1557 22.1458L23.1196 22.1421C25.3124 22.1421 27.5015 22.1383 29.6943 22.1383H30.6693C31.3978 22.1383 32.0503 22.4439 32.479 22.9172V17.3976V9.87651L29.6943 8.18447L23.1234 4.18541Z" fill="black"/>
</g>
<defs>
<clipPath id="clip0_139_9486">
<rect width="180" height="45" fill="white"/>
</clipPath>
</defs>
</svg>
